<svg width="351" height="44" viewBox="0 0 351 44" fill="none" xmlns="http://www.w3.org/2000/svg">
<rect width="350.664" height="44" rx="22" fill="white" fill-opacity="0.05"/>
<path d="M27.0608 27.3211C27.2714 27.6467 27.6513 27.8664 28.1252 27.7956C28.7514 27.702 29.3622 27.5465 29.9497 27.3345C34.8874 27.5487 38.664 28.7275 38.664 30.1498C38.664 31.7239 34.0382 33 28.332 33C22.6258 33 18 31.7239 18 30.1498C18 28.6944 21.9543 27.4939 27.0608 27.3211Z" fill="#FFFCE5"/>
<path d="M27.2997 25.8901C26.4257 26.5438 27.0191 27.9608 28.1252 27.7956C29.6347 27.5701 31.0551 26.9847 32.274 26.1146C35.4692 26.5254 37.6842 27.4199 37.6842 28.4575C37.6842 29.884 33.4971 31.0405 28.332 31.0405C23.1669 31.0405 18.9797 29.884 18.9797 28.4575C18.9798 27.1273 22.6203 26.032 27.2997 25.8901Z" fill="#FFFCE5"/>
<path fill-rule="evenodd" clip-rule="evenodd" d="M28.332 11C33.6938 11 38.0405 15.3466 38.0405 20.7085C38.0405 26.0704 33.6938 30.417 28.332 30.417C22.9701 30.417 18.6235 26.0704 18.6235 20.7085C18.6235 15.3466 22.9701 11 28.332 11ZM34.929 23.173C35.5051 22.1918 34.361 21.0958 33.4177 21.7321C33.4177 21.7321 31.2619 22.8554 30.0901 23.6434C28.8759 24.46 27.3178 25.8456 27.3134 25.8494C26.3695 26.4861 26.9641 27.9577 28.0903 27.7895C30.9389 27.364 33.4706 25.6567 34.929 23.173ZM24.2621 16.6088C24.1843 15.5421 22.7062 15.2447 22.2283 16.2445C20.9844 18.8474 20.984 21.8843 22.2313 24.4855C22.7101 25.484 24.1846 25.1812 24.2621 24.1149C24.2664 24.0563 24.27 23.9984 24.2793 23.9404C24.3467 23.5173 24.6363 21.6264 24.6356 20.3522C24.635 19.0853 24.3466 17.2056 24.2793 16.7836C24.27 16.7255 24.2664 16.6674 24.2621 16.6088ZM28.0903 17.1979C26.9655 16.4505 25.4613 17.257 25.4613 18.6075V22.43C25.4613 23.7805 26.9655 24.587 28.0903 23.8396L30.9666 21.9282C31.9742 21.2587 31.9742 19.7788 30.9666 19.1093L28.0903 17.1979ZM28.3152 13.0616C27.2284 12.9007 26.6431 14.267 27.4531 14.9341C27.512 14.9826 27.5712 15.0298 27.6245 15.0844C27.9583 15.4263 29.2816 16.7577 30.322 17.4601C31.3658 18.1647 33.1015 18.8955 33.5442 19.0773C33.6148 19.1062 33.6807 19.1433 33.7477 19.1797C34.6701 19.681 35.7152 18.6204 35.1573 17.6731C33.6957 15.1913 31.1644 13.4834 28.3152 13.0616Z" fill="#FFFCE5"/>
<path d="M50.2621 29V14.4545H55.5888C56.621 14.4545 57.4756 14.625 58.1527 14.9659C58.8298 15.3021 59.3364 15.759 59.6726 16.3366C60.0088 16.9096 60.1768 17.5559 60.1768 18.2756C60.1768 18.8816 60.0656 19.393 59.843 19.8097C59.6205 20.2216 59.3222 20.553 58.9482 20.804C58.5788 21.0502 58.1716 21.2301 57.7266 21.3438V21.4858C58.2095 21.5095 58.6806 21.6657 59.1399 21.9545C59.6039 22.2386 59.9875 22.6435 60.2905 23.169C60.5935 23.6946 60.745 24.3338 60.745 25.0866C60.745 25.83 60.5698 26.4976 60.2195 27.0895C59.8738 27.6766 59.3388 28.143 58.6143 28.4886C57.8899 28.8295 56.9643 29 55.8374 29H50.2621ZM52.4567 27.1179H55.6243C56.6754 27.1179 57.4283 26.9143 57.8828 26.5071C58.3374 26.0999 58.5646 25.5909 58.5646 24.9801C58.5646 24.5208 58.4486 24.0994 58.2166 23.7159C57.9846 23.3324 57.6532 23.027 57.2223 22.7997C56.7962 22.5724 56.2895 22.4588 55.7024 22.4588H52.4567V27.1179ZM52.4567 20.7472H55.397C55.8894 20.7472 56.3321 20.6525 56.7251 20.4631C57.1229 20.2737 57.4377 20.0085 57.6697 19.6676C57.9065 19.322 58.0249 18.9148 58.0249 18.446C58.0249 17.8447 57.8142 17.3404 57.3928 16.9332C56.9714 16.526 56.325 16.3224 55.4538 16.3224H52.4567V20.7472ZM65.7523 29.2415C65.061 29.2415 64.436 29.1136 63.8773 28.858C63.3186 28.5975 62.8759 28.2211 62.5491 27.7287C62.2272 27.2363 62.0662 26.6326 62.0662 25.9176C62.0662 25.3021 62.1846 24.7955 62.4213 24.3977C62.658 24 62.9777 23.6851 63.3801 23.4531C63.7826 23.2211 64.2324 23.0459 64.7295 22.9276C65.2267 22.8092 65.7333 22.7192 66.2494 22.6577C66.9028 22.5819 67.4331 22.5204 67.8403 22.473C68.2475 22.4209 68.5435 22.3381 68.7281 22.2244C68.9128 22.1108 69.0051 21.9261 69.0051 21.6705V21.6207C69.0051 21.0005 68.8299 20.5199 68.4795 20.179C68.1339 19.8381 67.6178 19.6676 66.9312 19.6676C66.2163 19.6676 65.6528 19.8262 65.2409 20.1435C64.8337 20.456 64.552 20.804 64.3957 21.1875L62.4 20.733C62.6367 20.0701 62.9824 19.535 63.4369 19.1278C63.8962 18.7159 64.4241 18.4176 65.0207 18.233C65.6173 18.0436 66.2447 17.9489 66.9028 17.9489C67.3384 17.9489 67.8001 18.0009 68.2878 18.1051C68.7802 18.2045 69.2395 18.3892 69.6656 18.6591C70.0965 18.929 70.4492 19.3149 70.7239 19.8168C70.9985 20.3139 71.1358 20.9602 71.1358 21.7557V29H69.0619V27.5085H68.9767C68.8394 27.7831 68.6334 28.053 68.3588 28.3182C68.0842 28.5833 67.7314 28.8035 67.3006 28.9787C66.8697 29.1539 66.3536 29.2415 65.7523 29.2415ZM66.2139 27.5369C66.801 27.5369 67.3029 27.4209 67.7196 27.1889C68.141 26.9569 68.4606 26.6539 68.6784 26.2798C68.9009 25.901 69.0122 25.4962 69.0122 25.0653V23.6591C68.9365 23.7348 68.7897 23.8059 68.5719 23.8722C68.3588 23.9337 68.115 23.9882 67.8403 24.0355C67.5657 24.0781 67.2982 24.1184 67.0378 24.1562C66.7774 24.1894 66.5596 24.2178 66.3844 24.2415C65.9724 24.2936 65.596 24.3812 65.2551 24.5043C64.9189 24.6274 64.6491 24.8049 64.4455 25.0369C64.2466 25.2642 64.1472 25.5672 64.1472 25.946C64.1472 26.4716 64.3413 26.8693 64.7295 27.1392C65.1178 27.4044 65.6126 27.5369 66.2139 27.5369ZM77.9381 33.3182C77.0717 33.3182 76.3259 33.2045 75.7009 32.9773C75.0807 32.75 74.574 32.4493 74.181 32.0753C73.788 31.7012 73.4945 31.2917 73.3004 30.8466L75.1256 30.0938C75.2535 30.3021 75.4239 30.5223 75.637 30.7543C75.8548 30.991 76.1484 31.1922 76.5177 31.358C76.8917 31.5237 77.3723 31.6065 77.9594 31.6065C78.7644 31.6065 79.4296 31.41 79.9552 31.017C80.4808 30.6288 80.7435 30.0085 80.7435 29.1562V27.0114H80.6086C80.4808 27.2434 80.2961 27.5014 80.0546 27.7855C79.8179 28.0696 79.4912 28.3158 79.0745 28.5241C78.6578 28.7325 78.1157 28.8366 77.4481 28.8366C76.5863 28.8366 75.8098 28.6354 75.1185 28.233C74.432 27.8258 73.8875 27.2268 73.485 26.4361C73.0873 25.6406 72.8884 24.6629 72.8884 23.5028C72.8884 22.3428 73.0849 21.3485 73.4779 20.5199C73.8756 19.6913 74.4201 19.0568 75.1114 18.6165C75.8027 18.1714 76.5863 17.9489 77.4623 17.9489C78.1394 17.9489 78.6862 18.0625 79.1029 18.2898C79.5196 18.5123 79.8439 18.7727 80.0759 19.071C80.3127 19.3693 80.495 19.6321 80.6228 19.8594H80.779V18.0909H82.86V29.2415C82.86 30.179 82.6422 30.9484 82.2066 31.5497C81.771 32.151 81.1815 32.5961 80.4381 32.8849C79.6995 33.1738 78.8662 33.3182 77.9381 33.3182ZM77.9168 27.0753C78.5276 27.0753 79.0437 26.9332 79.4651 26.6491C79.8913 26.3603 80.2132 25.9484 80.431 25.4134C80.6536 24.8736 80.7648 24.2273 80.7648 23.4744C80.7648 22.7405 80.6559 22.0942 80.4381 21.5355C80.2203 20.9768 79.9007 20.5412 79.4793 20.2287C79.0579 19.9115 78.5371 19.7528 77.9168 19.7528C77.2776 19.7528 76.745 19.9186 76.3188 20.25C75.8927 20.5767 75.5707 21.0218 75.3529 21.5852C75.1398 22.1487 75.0333 22.7784 75.0333 23.4744C75.0333 24.1894 75.1422 24.8168 75.36 25.3565C75.5778 25.8963 75.8998 26.3177 76.3259 26.6207C76.7568 26.9238 77.2871 27.0753 77.9168 27.0753ZM88.2827 29.2415C87.5915 29.2415 86.9665 29.1136 86.4077 28.858C85.849 28.5975 85.4063 28.2211 85.0796 27.7287C84.7576 27.2363 84.5967 26.6326 84.5967 25.9176C84.5967 25.3021 84.715 24.7955 84.9518 24.3977C85.1885 24 85.5081 23.6851 85.9106 23.4531C86.313 23.2211 86.7629 23.0459 87.26 22.9276C87.7572 22.8092 88.2638 22.7192 88.7799 22.6577C89.4333 22.5819 89.9636 22.5204 90.3708 22.473C90.778 22.4209 91.0739 22.3381 91.2586 22.2244C91.4433 22.1108 91.5356 21.9261 91.5356 21.6705V21.6207C91.5356 21.0005 91.3604 20.5199 91.01 20.179C90.6644 19.8381 90.1483 19.6676 89.4617 19.6676C88.7468 19.6676 88.1833 19.8262 87.7714 20.1435C87.3642 20.456 87.0825 20.804 86.9262 21.1875L84.9305 20.733C85.1672 20.0701 85.5129 19.535 85.9674 19.1278C86.4267 18.7159 86.9546 18.4176 87.5512 18.233C88.1478 18.0436 88.7752 17.9489 89.4333 17.9489C89.8689 17.9489 90.3306 18.0009 90.8183 18.1051C91.3107 18.2045 91.77 18.3892 92.1961 18.6591C92.627 18.929 92.9797 19.3149 93.2543 19.8168C93.529 20.3139 93.6663 20.9602 93.6663 21.7557V29H91.5924V27.5085H91.5072C91.3699 27.7831 91.1639 28.053 90.8893 28.3182C90.6147 28.5833 90.2619 28.8035 89.831 28.9787C89.4002 29.1539 88.8841 29.2415 88.2827 29.2415ZM88.7444 27.5369C89.3315 27.5369 89.8334 27.4209 90.2501 27.1889C90.6715 26.9569 90.9911 26.6539 91.2089 26.2798C91.4314 25.901 91.5427 25.4962 91.5427 25.0653V23.6591C91.4669 23.7348 91.3201 23.8059 91.1023 23.8722C90.8893 23.9337 90.6454 23.9882 90.3708 24.0355C90.0962 24.0781 89.8287 24.1184 89.5683 24.1562C89.3078 24.1894 89.09 24.2178 88.9148 24.2415C88.5029 24.2936 88.1265 24.3812 87.7856 24.5043C87.4494 24.6274 87.1795 24.8049 86.9759 25.0369C86.7771 25.2642 86.6776 25.5672 86.6776 25.946C86.6776 26.4716 86.8718 26.8693 87.26 27.1392C87.6483 27.4044 88.1431 27.5369 88.7444 27.5369ZM95.8947 29V18.0909H98.0183V29H95.8947ZM96.9672 16.4077C96.5979 16.4077 96.2806 16.2846 96.0155 16.0384C95.7551 15.7874 95.6249 15.4891 95.6249 15.1435C95.6249 14.7931 95.7551 14.4948 96.0155 14.2486C96.2806 13.9976 96.5979 13.8722 96.9672 13.8722C97.3365 13.8722 97.6514 13.9976 97.9118 14.2486C98.1769 14.4948 98.3095 14.7931 98.3095 15.1435C98.3095 15.4891 98.1769 15.7874 97.9118 16.0384C97.6514 16.2846 97.3365 16.4077 96.9672 16.4077ZM100.275 29V18.0909H102.314V19.8665H102.449C102.676 19.2652 103.047 18.7964 103.564 18.4602C104.08 18.1193 104.698 17.9489 105.417 17.9489C106.146 17.9489 106.757 18.1193 107.25 18.4602C107.747 18.8011 108.114 19.2699 108.35 19.8665H108.464C108.725 19.2841 109.139 18.8201 109.707 18.4744C110.275 18.1241 110.952 17.9489 111.738 17.9489C112.728 17.9489 113.535 18.259 114.16 18.8793C114.79 19.4995 115.105 20.4347 115.105 21.6847V29H112.981V21.8835C112.981 21.1449 112.78 20.6098 112.377 20.2784C111.975 19.947 111.494 19.7812 110.936 19.7812C110.244 19.7812 109.707 19.9943 109.324 20.4205C108.94 20.8419 108.748 21.384 108.748 22.0469V29H106.632V21.7486C106.632 21.1567 106.447 20.6809 106.078 20.321C105.708 19.9612 105.228 19.7812 104.636 19.7812C104.234 19.7812 103.862 19.8878 103.521 20.1009C103.185 20.3092 102.913 20.6004 102.704 20.9744C102.501 21.3485 102.399 21.7817 102.399 22.2741V29H100.275ZM120.526 29.2415C119.834 29.2415 119.209 29.1136 118.651 28.858C118.092 28.5975 117.649 28.2211 117.323 27.7287C117.001 27.2363 116.84 26.6326 116.84 25.9176C116.84 25.3021 116.958 24.7955 117.195 24.3977C117.431 24 117.751 23.6851 118.154 23.4531C118.556 23.2211 119.006 23.0459 119.503 22.9276C120 22.8092 120.507 22.7192 121.023 22.6577C121.676 22.5819 122.207 22.5204 122.614 22.473C123.021 22.4209 123.317 22.3381 123.502 22.2244C123.686 22.1108 123.779 21.9261 123.779 21.6705V21.6207C123.779 21.0005 123.603 20.5199 123.253 20.179C122.907 19.8381 122.391 19.6676 121.705 19.6676C120.99 19.6676 120.426 19.8262 120.014 20.1435C119.607 20.456 119.325 20.804 119.169 21.1875L117.173 20.733C117.41 20.0701 117.756 19.535 118.21 19.1278C118.67 18.7159 119.198 18.4176 119.794 18.233C120.391 18.0436 121.018 17.9489 121.676 17.9489C122.112 17.9489 122.574 18.0009 123.061 18.1051C123.554 18.2045 124.013 18.3892 124.439 18.6591C124.87 18.929 125.223 19.3149 125.497 19.8168C125.772 20.3139 125.909 20.9602 125.909 21.7557V29H123.835V27.5085H123.75C123.613 27.7831 123.407 28.053 123.132 28.3182C122.858 28.5833 122.505 28.8035 122.074 28.9787C121.643 29.1539 121.127 29.2415 120.526 29.2415ZM120.987 27.5369C121.574 27.5369 122.076 27.4209 122.493 27.1889C122.914 26.9569 123.234 26.6539 123.452 26.2798C123.674 25.901 123.786 25.4962 123.786 25.0653V23.6591C123.71 23.7348 123.563 23.8059 123.345 23.8722C123.132 23.9337 122.888 23.9882 122.614 24.0355C122.339 24.0781 122.072 24.1184 121.811 24.1562C121.551 24.1894 121.333 24.2178 121.158 24.2415C120.746 24.2936 120.369 24.3812 120.029 24.5043C119.692 24.6274 119.422 24.8049 119.219 25.0369C119.02 25.2642 118.921 25.5672 118.921 25.946C118.921 26.4716 119.115 26.8693 119.503 27.1392C119.891 27.4044 120.386 27.5369 120.987 27.5369ZM130.261 22.5227V29H128.138V18.0909H130.176V19.8665H130.311C130.562 19.2888 130.955 18.8248 131.49 18.4744C132.03 18.1241 132.709 17.9489 133.528 17.9489C134.272 17.9489 134.923 18.1051 135.481 18.4176C136.04 18.7254 136.473 19.1847 136.781 19.7955C137.089 20.4062 137.243 21.1615 137.243 22.0611V29H135.119V22.3168C135.119 21.526 134.913 20.9081 134.501 20.4631C134.089 20.0133 133.524 19.7884 132.804 19.7884C132.311 19.7884 131.874 19.8949 131.49 20.108C131.111 20.321 130.811 20.6335 130.588 21.0455C130.37 21.4527 130.261 21.9451 130.261 22.5227ZM142.666 29.2415C141.974 29.2415 141.349 29.1136 140.791 28.858C140.232 28.5975 139.789 28.2211 139.462 27.7287C139.14 27.2363 138.979 26.6326 138.979 25.9176C138.979 25.3021 139.098 24.7955 139.335 24.3977C139.571 24 139.891 23.6851 140.293 23.4531C140.696 23.2211 141.146 23.0459 141.643 22.9276C142.14 22.8092 142.647 22.7192 143.163 22.6577C143.816 22.5819 144.346 22.5204 144.754 22.473C145.161 22.4209 145.457 22.3381 145.641 22.2244C145.826 22.1108 145.918 21.9261 145.918 21.6705V21.6207C145.918 21.0005 145.743 20.5199 145.393 20.179C145.047 19.8381 144.531 19.6676 143.845 19.6676C143.13 19.6676 142.566 19.8262 142.154 20.1435C141.747 20.456 141.465 20.804 141.309 21.1875L139.313 20.733C139.55 20.0701 139.896 19.535 140.35 19.1278C140.809 18.7159 141.337 18.4176 141.934 18.233C142.531 18.0436 143.158 17.9489 143.816 17.9489C144.252 17.9489 144.713 18.0009 145.201 18.1051C145.693 18.2045 146.153 18.3892 146.579 18.6591C147.01 18.929 147.363 19.3149 147.637 19.8168C147.912 20.3139 148.049 20.9602 148.049 21.7557V29H145.975V27.5085H145.89C145.753 27.7831 145.547 28.053 145.272 28.3182C144.997 28.5833 144.645 28.8035 144.214 28.9787C143.783 29.1539 143.267 29.2415 142.666 29.2415ZM143.127 27.5369C143.714 27.5369 144.216 27.4209 144.633 27.1889C145.054 26.9569 145.374 26.6539 145.592 26.2798C145.814 25.901 145.925 25.4962 145.925 25.0653V23.6591C145.85 23.7348 145.703 23.8059 145.485 23.8722C145.272 23.9337 145.028 23.9882 144.754 24.0355C144.479 24.0781 144.211 24.1184 143.951 24.1562C143.691 24.1894 143.473 24.2178 143.298 24.2415C142.886 24.2936 142.509 24.3812 142.168 24.5043C141.832 24.6274 141.562 24.8049 141.359 25.0369C141.16 25.2642 141.06 25.5672 141.06 25.946C141.06 26.4716 141.255 26.8693 141.643 27.1392C142.031 27.4044 142.526 27.5369 143.127 27.5369ZM154.424 16.3438V14.4545H165.681V16.3438H161.142V29H158.955V16.3438H154.424ZM169.521 22.5227V29H167.398V14.4545H169.493V19.8665H169.628C169.884 19.2794 170.274 18.813 170.8 18.4673C171.325 18.1217 172.012 17.9489 172.86 17.9489C173.608 17.9489 174.261 18.1027 174.82 18.4105C175.383 18.7183 175.819 19.1776 176.127 19.7884C176.439 20.3944 176.595 21.152 176.595 22.0611V29H174.472V22.3168C174.472 21.5166 174.266 20.8963 173.854 20.456C173.442 20.0109 172.869 19.7884 172.135 19.7884C171.633 19.7884 171.183 19.8949 170.786 20.108C170.393 20.321 170.083 20.6335 169.855 21.0455C169.633 21.4527 169.521 21.9451 169.521 22.5227ZM183.531 29.2202C182.456 29.2202 181.53 28.9905 180.754 28.5312C179.982 28.0672 179.385 27.4162 178.964 26.5781C178.547 25.7353 178.339 24.7481 178.339 23.6165C178.339 22.4991 178.547 21.5142 178.964 20.6619C179.385 19.8097 179.973 19.1444 180.725 18.6662C181.483 18.188 182.368 17.9489 183.382 17.9489C183.997 17.9489 184.594 18.0507 185.171 18.2543C185.749 18.4579 186.268 18.7775 186.727 19.2131C187.186 19.6487 187.548 20.2145 187.813 20.9105C188.079 21.6018 188.211 22.4422 188.211 23.4318V24.1847H179.539V22.5938H186.13C186.13 22.035 186.017 21.5402 185.789 21.1094C185.562 20.6738 185.242 20.3305 184.831 20.0795C184.423 19.8286 183.945 19.7031 183.396 19.7031C182.799 19.7031 182.278 19.8499 181.833 20.1435C181.393 20.4323 181.052 20.8111 180.811 21.2798C180.574 21.7438 180.456 22.2481 180.456 22.7926V24.0355C180.456 24.7647 180.583 25.3849 180.839 25.8963C181.099 26.4077 181.462 26.7983 181.926 27.0682C182.39 27.3333 182.932 27.4659 183.552 27.4659C183.955 27.4659 184.322 27.4091 184.653 27.2955C184.984 27.1771 185.271 27.0019 185.512 26.7699C185.754 26.5379 185.938 26.2514 186.066 25.9105L188.076 26.2727C187.915 26.8646 187.626 27.383 187.21 27.8281C186.798 28.2685 186.279 28.6117 185.654 28.858C185.034 29.0994 184.326 29.2202 183.531 29.2202ZM191.97 29L187.936 14.4545H190.244L193.078 25.7188H193.213L196.161 14.4545H198.448L201.395 25.7259H201.53L204.357 14.4545H206.672L202.631 29H200.422L197.361 18.1051H197.247L194.186 29H191.97ZM211.53 29.2202C210.455 29.2202 209.53 28.9905 208.753 28.5312C207.981 28.0672 207.385 27.4162 206.963 26.5781C206.547 25.7353 206.338 24.7481 206.338 23.6165C206.338 22.4991 206.547 21.5142 206.963 20.6619C207.385 19.8097 207.972 19.1444 208.725 18.6662C209.482 18.188 210.368 17.9489 211.381 17.9489C211.996 17.9489 212.593 18.0507 213.171 18.2543C213.748 18.4579 214.267 18.7775 214.726 19.2131C215.185 19.6487 215.548 20.2145 215.813 20.9105C216.078 21.6018 216.21 22.4422 216.21 23.4318V24.1847H207.539V22.5938H214.129C214.129 22.035 214.016 21.5402 213.789 21.1094C213.561 20.6738 213.242 20.3305 212.83 20.0795C212.423 19.8286 211.944 19.7031 211.395 19.7031C210.799 19.7031 210.278 19.8499 209.833 20.1435C209.392 20.4323 209.051 20.8111 208.81 21.2798C208.573 21.7438 208.455 22.2481 208.455 22.7926V24.0355C208.455 24.7647 208.583 25.3849 208.838 25.8963C209.099 26.4077 209.461 26.7983 209.925 27.0682C210.389 27.3333 210.931 27.4659 211.551 27.4659C211.954 27.4659 212.321 27.4091 212.652 27.2955C212.984 27.1771 213.27 27.0019 213.512 26.7699C213.753 26.5379 213.938 26.2514 214.066 25.9105L216.076 26.2727C215.915 26.8646 215.626 27.383 215.209 27.8281C214.797 28.2685 214.279 28.6117 213.654 28.858C213.033 29.0994 212.326 29.2202 211.53 29.2202ZM222.668 29.2202C221.594 29.2202 220.668 28.9905 219.891 28.5312C219.12 28.0672 218.523 27.4162 218.102 26.5781C217.685 25.7353 217.477 24.7481 217.477 23.6165C217.477 22.4991 217.685 21.5142 218.102 20.6619C218.523 19.8097 219.11 19.1444 219.863 18.6662C220.621 18.188 221.506 17.9489 222.519 17.9489C223.135 17.9489 223.731 18.0507 224.309 18.2543C224.887 18.4579 225.405 18.7775 225.864 19.2131C226.324 19.6487 226.686 20.2145 226.951 20.9105C227.216 21.6018 227.349 22.4422 227.349 23.4318V24.1847H218.677V22.5938H225.268C225.268 22.035 225.154 21.5402 224.927 21.1094C224.7 20.6738 224.38 20.3305 223.968 20.0795C223.561 19.8286 223.083 19.7031 222.533 19.7031C221.937 19.7031 221.416 19.8499 220.971 20.1435C220.531 20.4323 220.19 20.8111 219.948 21.2798C219.711 21.7438 219.593 22.2481 219.593 22.7926V24.0355C219.593 24.7647 219.721 25.3849 219.977 25.8963C220.237 26.4077 220.599 26.7983 221.063 27.0682C221.527 27.3333 222.069 27.4659 222.69 27.4659C223.092 27.4659 223.459 27.4091 223.79 27.2955C224.122 27.1771 224.408 27.0019 224.65 26.7699C224.891 26.5379 225.076 26.2514 225.204 25.9105L227.214 26.2727C227.053 26.8646 226.764 27.383 226.347 27.8281C225.935 28.2685 225.417 28.6117 224.792 28.858C224.172 29.0994 223.464 29.2202 222.668 29.2202ZM233.7 29.2202C232.644 29.2202 231.735 28.9811 230.973 28.5028C230.215 28.0199 229.633 27.3546 229.226 26.5071C228.818 25.6596 228.615 24.6889 228.615 23.5952C228.615 22.4872 228.823 21.5095 229.24 20.6619C229.657 19.8097 230.244 19.1444 231.001 18.6662C231.759 18.188 232.651 17.9489 233.679 17.9489C234.507 17.9489 235.246 18.1027 235.895 18.4105C236.543 18.7135 237.067 19.1397 237.464 19.6889C237.867 20.2382 238.106 20.8797 238.182 21.6136H236.115C236.001 21.1023 235.741 20.6619 235.334 20.2926C234.931 19.9233 234.391 19.7386 233.714 19.7386C233.122 19.7386 232.604 19.8949 232.159 20.2074C231.719 20.5152 231.375 20.9555 231.129 21.5284C230.883 22.0966 230.76 22.7689 230.76 23.5455C230.76 24.3409 230.88 25.0275 231.122 25.6051C231.363 26.1828 231.704 26.6302 232.145 26.9474C232.59 27.2647 233.113 27.4233 233.714 27.4233C234.117 27.4233 234.481 27.3499 234.808 27.2031C235.139 27.0516 235.416 26.8362 235.639 26.5568C235.866 26.2775 236.025 25.9413 236.115 25.5483H238.182C238.106 26.2538 237.876 26.8835 237.493 27.4375C237.109 27.9915 236.595 28.4271 235.951 28.7443C235.312 29.0616 234.562 29.2202 233.7 29.2202ZM241.976 22.5227V29H239.853V14.4545H241.948V19.8665H242.083C242.338 19.2794 242.729 18.813 243.255 18.4673C243.78 18.1217 244.467 17.9489 245.314 17.9489C246.062 17.9489 246.716 18.1027 247.274 18.4105C247.838 18.7183 248.273 19.1776 248.581 19.7884C248.894 20.3944 249.05 21.152 249.05 22.0611V29H246.926V22.3168C246.926 21.5166 246.72 20.8963 246.309 20.456C245.897 20.0109 245.324 19.7884 244.59 19.7884C244.088 19.7884 243.638 19.8949 243.24 20.108C242.847 20.321 242.537 20.6335 242.31 21.0455C242.087 21.4527 241.976 21.9451 241.976 22.5227ZM256.147 29V14.4545H261.474C262.506 14.4545 263.361 14.625 264.038 14.9659C264.715 15.3021 265.222 15.759 265.558 16.3366C265.894 16.9096 266.062 17.5559 266.062 18.2756C266.062 18.8816 265.951 19.393 265.728 19.8097C265.506 20.2216 265.207 20.553 264.833 20.804C264.464 21.0502 264.057 21.2301 263.612 21.3438V21.4858C264.095 21.5095 264.566 21.6657 265.025 21.9545C265.489 22.2386 265.873 22.6435 266.176 23.169C266.479 23.6946 266.63 24.3338 266.63 25.0866C266.63 25.83 266.455 26.4976 266.105 27.0895C265.759 27.6766 265.224 28.143 264.5 28.4886C263.775 28.8295 262.849 29 261.723 29H256.147ZM258.342 27.1179H261.509C262.561 27.1179 263.313 26.9143 263.768 26.5071C264.223 26.0999 264.45 25.5909 264.45 24.9801C264.45 24.5208 264.334 24.0994 264.102 23.7159C263.87 23.3324 263.538 23.027 263.107 22.7997C262.681 22.5724 262.175 22.4588 261.588 22.4588H258.342V27.1179ZM258.342 20.7472H261.282C261.775 20.7472 262.217 20.6525 262.61 20.4631C263.008 20.2737 263.323 20.0085 263.555 19.6676C263.792 19.322 263.91 18.9148 263.91 18.446C263.91 17.8447 263.699 17.3404 263.278 16.9332C262.857 16.526 262.21 16.3224 261.339 16.3224H258.342V20.7472ZM273.164 29.2202C272.09 29.2202 271.164 28.9905 270.387 28.5312C269.616 28.0672 269.019 27.4162 268.598 26.5781C268.181 25.7353 267.973 24.7481 267.973 23.6165C267.973 22.4991 268.181 21.5142 268.598 20.6619C269.019 19.8097 269.606 19.1444 270.359 18.6662C271.117 18.188 272.002 17.9489 273.015 17.9489C273.631 17.9489 274.227 18.0507 274.805 18.2543C275.383 18.4579 275.901 18.7775 276.36 19.2131C276.82 19.6487 277.182 20.2145 277.447 20.9105C277.712 21.6018 277.845 22.4422 277.845 23.4318V24.1847H269.173V22.5938H275.764C275.764 22.035 275.65 21.5402 275.423 21.1094C275.196 20.6738 274.876 20.3305 274.464 20.0795C274.057 19.8286 273.579 19.7031 273.029 19.7031C272.433 19.7031 271.912 19.8499 271.467 20.1435C271.027 20.4323 270.686 20.8111 270.444 21.2798C270.208 21.7438 270.089 22.2481 270.089 22.7926V24.0355C270.089 24.7647 270.217 25.3849 270.473 25.8963C270.733 26.4077 271.095 26.7983 271.559 27.0682C272.023 27.3333 272.565 27.4659 273.186 27.4659C273.588 27.4659 273.955 27.4091 274.287 27.2955C274.618 27.1771 274.904 27.0019 275.146 26.7699C275.387 26.5379 275.572 26.2514 275.7 25.9105L277.71 26.2727C277.549 26.8646 277.26 27.383 276.843 27.8281C276.431 28.2685 275.913 28.6117 275.288 28.858C274.668 29.0994 273.96 29.2202 273.164 29.2202ZM281.554 25.2997L281.54 22.7074H281.909L286.256 18.0909H288.798L283.841 23.3466H283.507L281.554 25.2997ZM279.601 29V14.4545H281.725V29H279.601ZM286.49 29L282.584 23.8153L284.047 22.331L289.097 29H286.49ZM294.386 29.2202C293.311 29.2202 292.386 28.9905 291.609 28.5312C290.838 28.0672 290.241 27.4162 289.82 26.5781C289.403 25.7353 289.195 24.7481 289.195 23.6165C289.195 22.4991 289.403 21.5142 289.82 20.6619C290.241 19.8097 290.828 19.1444 291.581 18.6662C292.338 18.188 293.224 17.9489 294.237 17.9489C294.853 17.9489 295.449 18.0507 296.027 18.2543C296.605 18.4579 297.123 18.7775 297.582 19.2131C298.042 19.6487 298.404 20.2145 298.669 20.9105C298.934 21.6018 299.067 22.4422 299.067 23.4318V24.1847H290.395V22.5938H296.986C296.986 22.035 296.872 21.5402 296.645 21.1094C296.418 20.6738 296.098 20.3305 295.686 20.0795C295.279 19.8286 294.801 19.7031 294.251 19.7031C293.655 19.7031 293.134 19.8499 292.689 20.1435C292.249 20.4323 291.908 20.8111 291.666 21.2798C291.429 21.7438 291.311 22.2481 291.311 22.7926V24.0355C291.311 24.7647 291.439 25.3849 291.695 25.8963C291.955 26.4077 292.317 26.7983 292.781 27.0682C293.245 27.3333 293.787 27.4659 294.408 27.4659C294.81 27.4659 295.177 27.4091 295.508 27.2955C295.84 27.1771 296.126 27.0019 296.368 26.7699C296.609 26.5379 296.794 26.2514 296.922 25.9105L298.932 26.2727C298.771 26.8646 298.482 27.383 298.065 27.8281C297.653 28.2685 297.135 28.6117 296.51 28.858C295.89 29.0994 295.182 29.2202 294.386 29.2202ZM300.823 29V18.0909H302.875V19.8239H302.989C303.188 19.2367 303.538 18.7751 304.04 18.4389C304.547 18.098 305.12 17.9276 305.759 17.9276C305.892 17.9276 306.048 17.9323 306.228 17.9418C306.412 17.9512 306.557 17.9631 306.661 17.9773V20.0085C306.576 19.9848 306.424 19.9588 306.206 19.9304C305.989 19.8973 305.771 19.8807 305.553 19.8807C305.051 19.8807 304.604 19.9872 304.211 20.2003C303.822 20.4086 303.515 20.6998 303.287 21.0739C303.06 21.4432 302.946 21.8646 302.946 22.3381V29H300.823ZM307.899 18.0909H310.022V29.7102C310.022 30.4394 309.89 31.0549 309.625 31.5568C309.364 32.0587 308.976 32.4399 308.46 32.7003C307.948 32.9607 307.316 33.0909 306.563 33.0909C306.488 33.0909 306.417 33.0909 306.35 33.0909C306.279 33.0909 306.206 33.0885 306.13 33.0838V31.2585C306.196 31.2585 306.256 31.2585 306.308 31.2585C306.355 31.2585 306.41 31.2585 306.471 31.2585C306.973 31.2585 307.335 31.1236 307.558 30.8537C307.785 30.5885 307.899 30.2027 307.899 29.696V18.0909ZM308.95 16.4077C308.58 16.4077 308.263 16.2846 307.998 16.0384C307.738 15.7874 307.607 15.4891 307.607 15.1435C307.607 14.7931 307.738 14.4948 307.998 14.2486C308.263 13.9976 308.58 13.8722 308.95 13.8722C309.319 13.8722 309.634 13.9976 309.894 14.2486C310.16 14.4948 310.292 14.7931 310.292 15.1435C310.292 15.4891 310.16 15.7874 309.894 16.0384C309.634 16.2846 309.319 16.4077 308.95 16.4077ZM315.454 29.2415C314.763 29.2415 314.138 29.1136 313.579 28.858C313.02 28.5975 312.577 28.2211 312.251 27.7287C311.929 27.2363 311.768 26.6326 311.768 25.9176C311.768 25.3021 311.886 24.7955 312.123 24.3977C312.36 24 312.679 23.6851 313.082 23.4531C313.484 23.2211 313.934 23.0459 314.431 22.9276C314.928 22.8092 315.435 22.7192 315.951 22.6577C316.604 22.5819 317.135 22.5204 317.542 22.473C317.949 22.4209 318.245 22.3381 318.43 22.2244C318.614 22.1108 318.707 21.9261 318.707 21.6705V21.6207C318.707 21.0005 318.531 20.5199 318.181 20.179C317.835 19.8381 317.319 19.6676 316.633 19.6676C315.918 19.6676 315.354 19.8262 314.942 20.1435C314.535 20.456 314.254 20.804 314.097 21.1875L312.102 20.733C312.338 20.0701 312.684 19.535 313.138 19.1278C313.598 18.7159 314.126 18.4176 314.722 18.233C315.319 18.0436 315.946 17.9489 316.604 17.9489C317.04 17.9489 317.502 18.0009 317.989 18.1051C318.482 18.2045 318.941 18.3892 319.367 18.6591C319.798 18.929 320.151 19.3149 320.425 19.8168C320.7 20.3139 320.837 20.9602 320.837 21.7557V29H318.763V27.5085H318.678C318.541 27.7831 318.335 28.053 318.06 28.3182C317.786 28.5833 317.433 28.8035 317.002 28.9787C316.571 29.1539 316.055 29.2415 315.454 29.2415ZM315.915 27.5369C316.503 27.5369 317.004 27.4209 317.421 27.1889C317.843 26.9569 318.162 26.6539 318.38 26.2798C318.603 25.901 318.714 25.4962 318.714 25.0653V23.6591C318.638 23.7348 318.491 23.8059 318.273 23.8722C318.06 23.9337 317.817 23.9882 317.542 24.0355C317.267 24.0781 317 24.1184 316.739 24.1562C316.479 24.1894 316.261 24.2178 316.086 24.2415C315.674 24.2936 315.298 24.3812 314.957 24.5043C314.621 24.6274 314.351 24.8049 314.147 25.0369C313.948 25.2642 313.849 25.5672 313.849 25.946C313.849 26.4716 314.043 26.8693 314.431 27.1392C314.819 27.4044 315.314 27.5369 315.915 27.5369ZM325.388 24.8168V24.6818C325.398 23.8011 325.485 23.1004 325.651 22.5795C325.822 22.0587 326.063 21.6373 326.375 21.3153C326.688 20.9934 327.064 20.6998 327.505 20.4347C327.789 20.2547 328.045 20.0535 328.272 19.831C328.499 19.6084 328.679 19.3527 328.812 19.0639C328.944 18.7751 329.01 18.4555 329.01 18.1051C329.01 17.6837 328.911 17.3191 328.712 17.0114C328.513 16.7036 328.248 16.4669 327.917 16.3011C327.59 16.1307 327.225 16.0455 326.823 16.0455C326.458 16.0455 326.11 16.1212 325.779 16.2727C325.447 16.4242 325.173 16.661 324.955 16.983C324.737 17.3002 324.612 17.7098 324.579 18.2116H322.42C322.453 17.3594 322.668 16.6397 323.066 16.0526C323.464 15.4607 323.989 15.0133 324.643 14.7102C325.301 14.4072 326.027 14.2557 326.823 14.2557C327.694 14.2557 328.456 14.419 329.11 14.7457C329.763 15.0677 330.27 15.5199 330.63 16.1023C330.994 16.6799 331.177 17.3546 331.177 18.1264C331.177 18.6567 331.094 19.1349 330.928 19.5611C330.762 19.9825 330.526 20.3589 330.218 20.6903C329.915 21.0218 329.55 21.3153 329.124 21.571C328.722 21.822 328.395 22.0824 328.144 22.3523C327.898 22.6222 327.718 22.9418 327.604 23.3111C327.491 23.6804 327.429 24.1373 327.42 24.6818V24.8168H325.388ZM326.461 29.1349C326.072 29.1349 325.739 28.9976 325.459 28.723C325.18 28.4437 325.04 28.1075 325.04 27.7145C325.04 27.3262 325.18 26.9948 325.459 26.7202C325.739 26.4408 326.072 26.3011 326.461 26.3011C326.844 26.3011 327.176 26.4408 327.455 26.7202C327.739 26.9948 327.881 27.3262 327.881 27.7145C327.881 27.9749 327.815 28.214 327.682 28.4318C327.554 28.6449 327.384 28.8153 327.171 28.9432C326.958 29.071 326.721 29.1349 326.461 29.1349Z" fill="#FFFCE5"/>
</svg>
