<svg width="21" height="22" viewBox="0 0 21 22" fill="none" xmlns="http://www.w3.org/2000/svg">
<path d="M9.06084 16.3211C9.27143 16.6467 9.65127 16.8664 10.1252 16.7956C10.7514 16.702 11.3622 16.5465 11.9497 16.3345C16.8874 16.5487 20.664 17.7275 20.664 19.1498C20.664 20.7239 16.0382 22 10.332 22C4.62579 22 0 20.7239 0 19.1498C0 17.6944 3.95434 16.4939 9.06084 16.3211Z" fill="#FFFCE5"/>
<path d="M9.29967 14.8901C8.42565 15.5438 9.01905 16.9608 10.1252 16.7956C11.6347 16.5701 13.0551 15.9847 14.274 15.1146C17.4692 15.5254 19.6842 16.4199 19.6842 17.4575C19.6842 18.884 15.4971 20.0405 10.332 20.0405C5.16688 20.0405 0.979735 18.884 0.979735 17.4575C0.979758 16.1273 4.62034 15.032 9.29967 14.8901Z" fill="#FFFCE5"/>
<path fill-rule="evenodd" clip-rule="evenodd" d="M10.332 0C15.6938 0 20.0405 4.34664 20.0405 9.7085C20.0405 15.0704 15.6938 19.417 10.332 19.417C4.97013 19.417 0.623482 15.0704 0.623482 9.7085C0.623482 4.34664 4.97013 0 10.332 0ZM16.929 12.173C17.5051 11.1918 16.361 10.0958 15.4177 10.7321C15.4177 10.7321 13.2619 11.8554 12.0901 12.6434C10.8759 13.46 9.3178 14.8456 9.31343 14.8494C8.36948 15.4861 8.96414 16.9577 10.0903 16.7895C12.9389 16.364 15.4706 14.6567 16.929 12.173ZM6.26213 5.60881C6.18432 4.54208 4.70617 4.24473 4.22833 5.24454C2.98436 7.84738 2.98396 10.8843 4.23129 13.4855C4.71011 14.484 6.18456 14.1812 6.26213 13.1149C6.26639 13.0563 6.27002 12.9984 6.27926 12.9404C6.34672 12.5173 6.6363 10.6264 6.63563 9.35223C6.63496 8.08528 6.34665 6.20562 6.27926 5.78356C6.27 5.7255 6.26641 5.66745 6.26213 5.60881ZM10.0903 6.19794C8.96547 5.45051 7.46134 6.25698 7.46134 7.60747V11.43C7.46134 12.7805 8.96547 13.587 10.0903 12.8396L12.9666 10.9282C13.9742 10.2587 13.9742 8.77882 12.9666 8.10926L10.0903 6.19794ZM10.3152 2.06163C9.22841 1.90074 8.6431 3.26697 9.45312 3.93408C9.51201 3.98257 9.57119 4.02979 9.62448 4.08438C9.95827 4.42633 11.2816 5.75774 12.322 6.4601C13.3658 7.16468 15.1015 7.89551 15.5442 8.07726C15.6148 8.1062 15.6807 8.14332 15.7477 8.17972C16.6701 8.68096 17.7152 7.62043 17.1573 6.67312C15.6957 4.19129 13.1644 2.48343 10.3152 2.06163Z" fill="#FFFCE5"/>
</svg>
