<svg width="158" height="54" viewBox="0 0 158 54" fill="none" xmlns="http://www.w3.org/2000/svg">
<g filter="url(#filter0_d_8_3)">
<rect x="6" y="2" width="146" height="42" rx="21" fill="url(#paint0_linear_8_3)" shape-rendering="crispEdges"/>
<rect x="6.25" y="2.25" width="145.5" height="41.5" rx="20.75" stroke="white" stroke-opacity="0.5" stroke-width="0.5" shape-rendering="crispEdges"/>
<path d="M26.952 29H25.008V16.94H27.762L30.534 23.564L31.578 26.444H31.722L32.766 23.564L35.466 16.94H38.22V29H36.294V21.872L36.366 19.856H36.24L35.484 21.872L32.784 28.28H30.444L27.726 21.872L27.006 19.856H26.844L26.952 21.872V29ZM43.0194 29.18C42.2514 29.18 41.6154 29.024 41.1114 28.712C40.6074 28.388 40.2354 27.956 39.9954 27.416C39.7554 26.864 39.6354 26.252 39.6354 25.58V20.054H41.5794V25.22C41.5794 26.024 41.7474 26.606 42.0834 26.966C42.4194 27.326 42.9714 27.506 43.7394 27.506C44.2434 27.506 44.6694 27.428 45.0174 27.272C45.3654 27.104 45.6294 26.846 45.8094 26.498C45.9894 26.138 46.0794 25.67 46.0794 25.094H46.5834V27.218H46.1514C46.0194 27.554 45.8154 27.872 45.5394 28.172C45.2754 28.472 44.9334 28.718 44.5134 28.91C44.1054 29.09 43.6074 29.18 43.0194 29.18ZM48.0234 29H46.2234V26.318L46.0794 26.228V20.054H48.0234V29ZM51.3414 29H49.3974V16.94H51.3414V29ZM60.1972 29H58.3972V27.236L58.3432 26.75V23.312C58.3432 22.64 58.1812 22.184 57.8572 21.944C57.5452 21.704 57.0352 21.584 56.3272 21.584C55.6192 21.584 55.1092 21.71 54.7972 21.962C54.4972 22.214 54.3472 22.634 54.3472 23.222V23.492H52.4752V23.312C52.4752 22.64 52.6372 22.046 52.9612 21.53C53.2972 21.014 53.7592 20.612 54.3472 20.324C54.9472 20.024 55.6432 19.874 56.4352 19.874C57.2752 19.874 57.9712 20.03 58.5232 20.342C59.0752 20.654 59.4892 21.086 59.7652 21.638C60.0532 22.178 60.1972 22.82 60.1972 23.564V29ZM55.0672 29.18C54.2632 29.18 53.5852 28.976 53.0332 28.568C52.4932 28.148 52.2232 27.554 52.2232 26.786C52.2232 26.282 52.3372 25.862 52.5652 25.526C52.8052 25.19 53.1472 24.914 53.5912 24.698C54.0352 24.482 54.5752 24.332 55.2112 24.248L58.5232 23.78V25.148L55.4992 25.598C54.9832 25.67 54.6232 25.778 54.4192 25.922C54.2152 26.066 54.1132 26.306 54.1132 26.642C54.1132 26.99 54.2332 27.242 54.4732 27.398C54.7252 27.554 55.1332 27.632 55.6972 27.632C56.1292 27.632 56.5432 27.566 56.9392 27.434C57.3472 27.29 57.6832 27.056 57.9472 26.732C58.2112 26.396 58.3432 25.928 58.3432 25.328L58.5952 27.614L58.3072 27.596C58.1392 27.872 57.9052 28.13 57.6052 28.37C57.3172 28.61 56.9632 28.808 56.5432 28.964C56.1232 29.108 55.6312 29.18 55.0672 29.18ZM63.3366 18.92H61.4106L61.3926 16.94H63.3366V18.92ZM63.3546 29H61.4106V20H63.3546V29ZM69.3963 29H67.4523V20H69.2343V22.502L69.3963 22.592V29ZM69.3963 23.168H68.9463V21.422H69.3243C69.5043 21.002 69.7983 20.642 70.2063 20.342C70.6263 20.03 71.1663 19.874 71.8263 19.874C72.4623 19.874 72.9663 20.012 73.3383 20.288C73.7223 20.564 73.9983 20.93 74.1663 21.386C74.3343 21.842 74.4183 22.352 74.4183 22.916V23.51H72.4743V23.15C72.4743 22.55 72.3723 22.13 72.1683 21.89C71.9643 21.65 71.5803 21.53 71.0163 21.53C70.4283 21.53 70.0083 21.656 69.7563 21.908C69.5163 22.148 69.3963 22.568 69.3963 23.168ZM82.4883 29H80.6883V27.236L80.6343 26.75V23.312C80.6343 22.64 80.4723 22.184 80.1483 21.944C79.8363 21.704 79.3263 21.584 78.6183 21.584C77.9103 21.584 77.4003 21.71 77.0883 21.962C76.7883 22.214 76.6383 22.634 76.6383 23.222V23.492H74.7663V23.312C74.7663 22.64 74.9283 22.046 75.2523 21.53C75.5883 21.014 76.0503 20.612 76.6383 20.324C77.2383 20.024 77.9343 19.874 78.7263 19.874C79.5663 19.874 80.2623 20.03 80.8143 20.342C81.3663 20.654 81.7803 21.086 82.0563 21.638C82.3443 22.178 82.4883 22.82 82.4883 23.564V29ZM77.3583 29.18C76.5543 29.18 75.8763 28.976 75.3243 28.568C74.7843 28.148 74.5143 27.554 74.5143 26.786C74.5143 26.282 74.6283 25.862 74.8563 25.526C75.0963 25.19 75.4383 24.914 75.8823 24.698C76.3263 24.482 76.8663 24.332 77.5023 24.248L80.8143 23.78V25.148L77.7903 25.598C77.2743 25.67 76.9143 25.778 76.7103 25.922C76.5063 26.066 76.4043 26.306 76.4043 26.642C76.4043 26.99 76.5243 27.242 76.7643 27.398C77.0163 27.554 77.4243 27.632 77.9883 27.632C78.4203 27.632 78.8343 27.566 79.2303 27.434C79.6383 27.29 79.9743 27.056 80.2383 26.732C80.5023 26.396 80.6343 25.928 80.6343 25.328L80.8863 27.614L80.5983 27.596C80.4303 27.872 80.1963 28.13 79.8963 28.37C79.6083 28.61 79.2543 28.808 78.8343 28.964C78.4143 29.108 77.9223 29.18 77.3583 29.18ZM98.1738 29H96.2298V23.798C96.2298 23.006 96.0798 22.436 95.7798 22.088C95.4918 21.728 94.9398 21.548 94.1238 21.548C93.3918 21.548 92.8458 21.722 92.4858 22.07C92.1378 22.406 91.9638 22.982 91.9638 23.798L91.6218 23.834L91.4598 21.728H91.7478C91.8918 21.416 92.0898 21.122 92.3418 20.846C92.6058 20.558 92.9418 20.324 93.3498 20.144C93.7578 19.964 94.2558 19.874 94.8438 19.874C95.6238 19.874 96.2538 20.024 96.7338 20.324C97.2258 20.624 97.5858 21.038 97.8138 21.566C98.0538 22.094 98.1738 22.7 98.1738 23.384V29ZM85.7538 29H83.8098V20.054H85.5918V22.736L85.7538 22.826V29ZM91.9638 29H90.0198V23.798C90.0198 23.006 89.8698 22.436 89.5698 22.088C89.2818 21.728 88.7298 21.548 87.9138 21.548C87.1818 21.548 86.6358 21.716 86.2758 22.052C85.9278 22.388 85.7538 22.964 85.7538 23.78L85.4118 23.834L85.2498 21.728H85.6818C85.8138 21.404 86.0058 21.104 86.2578 20.828C86.5218 20.552 86.8578 20.324 87.2658 20.144C87.6738 19.964 88.1598 19.874 88.7238 19.874C89.4798 19.874 90.0918 20.024 90.5598 20.324C91.0398 20.624 91.3938 21.038 91.6218 21.566C91.8498 22.094 91.9638 22.7 91.9638 23.384V29ZM107.037 29H105.237V27.236L105.183 26.75V23.312C105.183 22.64 105.021 22.184 104.697 21.944C104.385 21.704 103.875 21.584 103.167 21.584C102.459 21.584 101.949 21.71 101.637 21.962C101.337 22.214 101.187 22.634 101.187 23.222V23.492H99.3152V23.312C99.3152 22.64 99.4772 22.046 99.8012 21.53C100.137 21.014 100.599 20.612 101.187 20.324C101.787 20.024 102.483 19.874 103.275 19.874C104.115 19.874 104.811 20.03 105.363 20.342C105.915 20.654 106.329 21.086 106.605 21.638C106.893 22.178 107.037 22.82 107.037 23.564V29ZM101.907 29.18C101.103 29.18 100.425 28.976 99.8732 28.568C99.3332 28.148 99.0632 27.554 99.0632 26.786C99.0632 26.282 99.1772 25.862 99.4052 25.526C99.6452 25.19 99.9872 24.914 100.431 24.698C100.875 24.482 101.415 24.332 102.051 24.248L105.363 23.78V25.148L102.339 25.598C101.823 25.67 101.463 25.778 101.259 25.922C101.055 26.066 100.953 26.306 100.953 26.642C100.953 26.99 101.073 27.242 101.313 27.398C101.565 27.554 101.973 27.632 102.537 27.632C102.969 27.632 103.383 27.566 103.779 27.434C104.187 27.29 104.523 27.056 104.787 26.732C105.051 26.396 105.183 25.928 105.183 25.328L105.435 27.614L105.147 27.596C104.979 27.872 104.745 28.13 104.445 28.37C104.157 28.61 103.803 28.808 103.383 28.964C102.963 29.108 102.471 29.18 101.907 29.18ZM110.303 29H108.359V16.94H110.303V29Z" fill="#FFFCE5"/>
<path d="M122.293 17.5561C122.473 16.8147 123.527 16.8147 123.707 17.5561L124.202 19.5961C124.266 19.8608 124.473 20.0675 124.737 20.1317L126.777 20.6263C127.519 20.8061 127.519 21.8606 126.777 22.0403L124.737 22.535C124.473 22.5992 124.266 22.8059 124.202 23.0706L123.707 25.1106C123.527 25.852 122.473 25.852 122.293 25.1106L121.798 23.0706C121.734 22.8059 121.528 22.5992 121.263 22.535L119.223 22.0403C118.481 21.8606 118.481 20.8061 119.223 20.6263L121.263 20.1317C121.528 20.0675 121.734 19.8608 121.798 19.5961L122.293 17.5561Z" fill="#FFFCE5"/>
<path d="M128.232 24.6755C128.342 24.2193 128.991 24.2193 129.102 24.6755L129.406 25.9309C129.446 26.0938 129.573 26.221 129.736 26.2605L130.991 26.5649C131.447 26.6756 131.447 27.3245 130.991 27.4351L129.736 27.7395C129.573 27.779 129.446 27.9062 129.406 28.0691L129.102 29.3245C128.991 29.7807 128.342 29.7807 128.232 29.3245L127.927 28.0691C127.888 27.9062 127.761 27.779 127.598 27.7395L126.342 27.4351C125.886 27.3245 125.886 26.6756 126.342 26.5649L127.598 26.2605C127.761 26.221 127.888 26.0938 127.927 25.9309L128.232 24.6755Z" fill="#FFFCE5"/>
<path d="M130.381 17.4746C130.454 17.1752 130.88 17.1752 130.952 17.4746L131.152 18.2984C131.178 18.4053 131.261 18.4888 131.368 18.5147L132.192 18.7145C132.492 18.7871 132.492 19.2129 132.192 19.2855L131.368 19.4853C131.261 19.5112 131.178 19.5947 131.152 19.7016L130.952 20.5254C130.88 20.8249 130.454 20.8249 130.381 20.5254L130.181 19.7016C130.156 19.5947 130.072 19.5112 129.965 19.4853L129.141 19.2855C128.842 19.2129 128.842 18.7871 129.141 18.7145L129.965 18.5147C130.072 18.4888 130.156 18.4053 130.181 18.2984L130.381 17.4746Z" fill="#FFFCE5"/>
<path fill-rule="evenodd" clip-rule="evenodd" d="M130.667 17.6207L130.504 18.2931C130.439 18.5619 130.229 18.7718 129.96 18.837L129.287 19L129.96 19.1631C130.229 19.2282 130.439 19.4381 130.504 19.7069L130.667 20.3793L130.83 19.7069C130.895 19.4381 131.105 19.2282 131.374 19.1631L132.046 19L131.374 18.837C131.105 18.7718 130.895 18.5619 130.83 18.2931L130.667 17.6207ZM130.993 17.2566C130.91 16.9145 130.423 16.9145 130.34 17.2566L130.112 18.1982C130.083 18.3204 129.987 18.4158 129.865 18.4454L128.923 18.6737C128.581 18.7567 128.581 19.2433 128.923 19.3263L129.865 19.5546C129.987 19.5843 130.083 19.6796 130.112 19.8018L130.34 20.7434C130.423 21.0856 130.91 21.0856 130.993 20.7434L131.221 19.8018C131.251 19.6796 131.346 19.5843 131.469 19.5546L132.41 19.3263C132.752 19.2433 132.752 18.7567 132.41 18.6737L131.469 18.4454C131.346 18.4158 131.251 18.3204 131.221 18.1982L130.993 17.2566Z" fill="#FFFCE5"/>
<path d="M122.667 30.3333C122.299 30.3333 122 30.0349 122 29.6667C122 29.2985 122.299 29 122.667 29C123.035 29 123.333 29.2985 123.333 29.6667C123.333 30.0349 123.035 30.3333 122.667 30.3333Z" fill="#FFFCE5"/>
<path d="M119.333 27.6667C118.965 27.6667 118.667 27.3682 118.667 27C118.667 26.6318 118.965 26.3333 119.333 26.3333C119.702 26.3333 120 26.6318 120 27C120 27.3682 119.702 27.6667 119.333 27.6667Z" fill="#FFFCE5"/>
<path d="M126.667 17C126.299 17 126 16.7015 126 16.3333C126 15.9651 126.299 15.6667 126.667 15.6667C127.035 15.6667 127.333 15.9651 127.333 16.3333C127.333 16.7015 127.035 17 126.667 17Z" fill="#FFFCE5"/>
<path d="M132.667 24.3333C132.299 24.3333 132 24.0349 132 23.6667C132 23.2985 132.299 23 132.667 23C133.035 23 133.333 23.2985 133.333 23.6667C133.333 24.0349 133.035 24.3333 132.667 24.3333Z" fill="#FFFCE5"/>
</g>
<defs>
<filter id="filter0_d_8_3" x="0" y="0" width="158" height="54" filterUnits="userSpaceOnUse" color-interpolation-filters="sRGB">
<feFlood flood-opacity="0" result="BackgroundImageFix"/>
<feColorMatrix in="SourceAlpha" type="matrix" values="0 0 0 0 0 0 0 0 0 0 0 0 0 0 0 0 0 0 127 0" result="hardAlpha"/>
<feOffset dy="4"/>
<feGaussianBlur stdDeviation="3"/>
<feComposite in2="hardAlpha" operator="out"/>
<feColorMatrix type="matrix" values="0 0 0 0 0 0 0 0 0 0 0 0 0 0 0 0 0 0 0.33 0"/>
<feBlend mode="normal" in2="BackgroundImageFix" result="effect1_dropShadow_8_3"/>
<feBlend mode="normal" in="SourceGraphic" in2="effect1_dropShadow_8_3" result="shape"/>
</filter>
<linearGradient id="paint0_linear_8_3" x1="79" y1="2" x2="79" y2="44" gradientUnits="userSpaceOnUse">
<stop offset="0.504807" stop-color="#1D1D1D"/>
<stop offset="1" stop-color="#4E0068"/>
</linearGradient>
</defs>
</svg>
