<svg width="122" height="38" viewBox="0 0 122 38" fill="none" xmlns="http://www.w3.org/2000/svg">
<rect width="122" height="38" rx="19" fill="#FFFCE5"/>
<path d="M24.624 24H22.896V13.28H27.504C28.2933 13.28 28.976 13.408 29.552 13.664C30.128 13.9093 30.5707 14.272 30.88 14.752C31.2 15.2213 31.36 15.7973 31.36 16.48C31.36 17.0667 31.2427 17.5787 31.008 18.016C30.784 18.4427 30.448 18.7787 30 19.024C29.5627 19.2587 29.024 19.392 28.384 19.424V19.552C28.7787 19.68 29.104 19.8667 29.36 20.112C29.616 20.3573 29.84 20.6613 30.032 21.024L31.648 24H29.632L28.112 21.232C27.952 20.9227 27.7813 20.6667 27.6 20.464C27.4187 20.2613 27.1947 20.112 26.928 20.016C26.6613 19.92 26.32 19.872 25.904 19.872H24.624V24ZM24.624 14.832V18.448H27.712C28.4053 18.448 28.9013 18.3093 29.2 18.032C29.4987 17.7547 29.648 17.2907 29.648 16.64C29.648 16 29.4987 15.5413 29.2 15.264C28.9013 14.976 28.4053 14.832 27.712 14.832H24.624ZM35.4509 24.16C34.5869 24.16 33.8669 23.9893 33.2909 23.648C32.7149 23.296 32.2882 22.8107 32.0109 22.192C31.7335 21.5627 31.5949 20.8373 31.5949 20.016C31.5949 19.1947 31.7495 18.4747 32.0589 17.856C32.3789 17.2373 32.8269 16.7573 33.4029 16.416C33.9789 16.064 34.6615 15.888 35.4509 15.888C36.1655 15.888 36.7949 16.0267 37.3389 16.304C37.8935 16.5707 38.3202 16.96 38.6189 17.472C38.9282 17.984 39.0829 18.6027 39.0829 19.328C39.0829 19.5413 39.0722 19.7493 39.0509 19.952C39.0402 20.144 39.0242 20.304 39.0029 20.432H32.4109V19.28H37.5949L37.4189 19.44C37.4615 18.9493 37.4082 18.5493 37.2589 18.24C37.1202 17.9307 36.8909 17.7013 36.5709 17.552C36.2615 17.4027 35.8722 17.328 35.4029 17.328C34.5602 17.328 33.9842 17.5413 33.6749 17.968C33.3655 18.384 33.2109 18.96 33.2109 19.696V20.176C33.2109 20.7093 33.2749 21.1627 33.4029 21.536C33.5415 21.8987 33.7762 22.1707 34.1069 22.352C34.4375 22.5333 34.8909 22.624 35.4669 22.624C36.1389 22.624 36.6135 22.5173 36.8909 22.304C37.1682 22.0907 37.3069 21.808 37.3069 21.456V21.328H39.0189V21.472C39.0189 22.016 38.8695 22.4907 38.5709 22.896C38.2722 23.2907 37.8562 23.6 37.3229 23.824C36.8002 24.048 36.1762 24.16 35.4509 24.16ZM43.8199 26.88C43.0732 26.88 42.4225 26.7627 41.8679 26.528C41.3239 26.2933 40.9025 25.952 40.6039 25.504C40.3052 25.0667 40.1559 24.528 40.1559 23.888H41.8839C41.8839 24.2507 41.9372 24.5387 42.0439 24.752C42.1505 24.9653 42.3479 25.1147 42.6359 25.2C42.9239 25.296 43.3345 25.344 43.8679 25.344C44.3905 25.344 44.7905 25.2853 45.0679 25.168C45.3452 25.0507 45.5372 24.8533 45.6439 24.576C45.7505 24.2987 45.8039 23.9147 45.8039 23.424V18.144L45.9319 17.936V16.048H47.5319V23.424C47.5319 24.2027 47.3825 24.8427 47.0839 25.344C46.7852 25.856 46.3585 26.24 45.8039 26.496C45.2599 26.752 44.5985 26.88 43.8199 26.88ZM43.1479 23.248C42.0492 23.248 41.2065 22.9173 40.6199 22.256C40.0332 21.584 39.7399 20.688 39.7399 19.568C39.7399 18.448 40.0385 17.5573 40.6359 16.896C41.2332 16.224 42.0919 15.888 43.2119 15.888C43.8625 15.888 44.4225 16.0213 44.8919 16.288C45.3612 16.544 45.6865 16.9013 45.8679 17.36H46.1879L46.1079 19.312H45.8039C45.8039 18.864 45.7132 18.496 45.5319 18.208C45.3505 17.92 45.0945 17.7067 44.7639 17.568C44.4332 17.4293 44.0492 17.36 43.6119 17.36C43.1105 17.36 42.6999 17.4293 42.3799 17.568C42.0705 17.7067 41.8412 17.9413 41.6919 18.272C41.5425 18.592 41.4679 19.024 41.4679 19.568C41.4679 19.9733 41.5105 20.32 41.5959 20.608C41.6812 20.8853 41.8145 21.1093 41.9959 21.28C42.1772 21.4507 42.4065 21.5787 42.6839 21.664C42.9612 21.7387 43.2812 21.776 43.6439 21.776C44.0812 21.776 44.4599 21.7067 44.7799 21.568C45.0999 21.4187 45.3505 21.2 45.5319 20.912C45.7132 20.624 45.8039 20.256 45.8039 19.808H46.1559V21.84H45.7399C45.5585 22.224 45.2439 22.5547 44.7959 22.832C44.3479 23.1093 43.7985 23.248 43.1479 23.248ZM50.3677 15.04H48.6557L48.6397 13.28H50.3677V15.04ZM50.3837 24H48.6557V16H50.3837V24ZM54.7876 24.16C53.625 24.16 52.745 23.9307 52.1476 23.472C51.5503 23.0027 51.2516 22.2827 51.2516 21.312V21.28H52.9156V21.568C52.9156 21.8453 52.969 22.0747 53.0756 22.256C53.193 22.4267 53.385 22.5547 53.6516 22.64C53.929 22.7147 54.3183 22.752 54.8196 22.752C55.2463 22.752 55.5663 22.72 55.7796 22.656C56.0036 22.5813 56.153 22.48 56.2276 22.352C56.3023 22.224 56.3396 22.064 56.3396 21.872C56.3396 21.552 56.2276 21.328 56.0036 21.2C55.7796 21.0613 55.3796 20.9387 54.8036 20.832L53.5556 20.624C53.0863 20.528 52.6756 20.3947 52.3236 20.224C51.9823 20.0427 51.7156 19.7973 51.5236 19.488C51.3423 19.168 51.2516 18.768 51.2516 18.288C51.2516 17.5733 51.5343 16.9973 52.0996 16.56C52.665 16.112 53.465 15.888 54.4996 15.888C55.129 15.888 55.689 15.9893 56.1796 16.192C56.6703 16.3947 57.0596 16.6987 57.3476 17.104C57.6356 17.5093 57.7796 18.016 57.7796 18.624V18.768H56.1316V18.576C56.1316 18.32 56.089 18.1013 56.0036 17.92C55.9183 17.728 55.7583 17.5787 55.5236 17.472C55.289 17.3653 54.9316 17.312 54.4516 17.312C53.8223 17.312 53.4063 17.392 53.2036 17.552C53.001 17.712 52.8996 17.9467 52.8996 18.256C52.8996 18.5653 52.9903 18.784 53.1716 18.912C53.3636 19.0293 53.737 19.1467 54.2916 19.264L55.6516 19.52C56.1636 19.616 56.5903 19.76 56.9316 19.952C57.273 20.144 57.529 20.3947 57.6996 20.704C57.881 21.0133 57.9716 21.3813 57.9716 21.808C57.9716 22.5547 57.689 23.136 57.1236 23.552C56.569 23.9573 55.7903 24.16 54.7876 24.16ZM62.1197 24C61.2451 24 60.5731 23.8133 60.1037 23.44C59.6451 23.0667 59.4157 22.4373 59.4157 21.552V16.224L59.8157 14.08H61.1437V21.472C61.1437 21.888 61.2451 22.1547 61.4477 22.272C61.6611 22.3787 62.0397 22.432 62.5837 22.432H63.5437V23.856C63.3837 23.8987 63.1757 23.936 62.9197 23.968C62.6637 23.9893 62.3971 24 62.1197 24ZM63.5437 17.488H58.0877V16.048H63.5437V17.488ZM67.4884 24.16C66.6244 24.16 65.9044 23.9893 65.3284 23.648C64.7524 23.296 64.3257 22.8107 64.0484 22.192C63.771 21.5627 63.6324 20.8373 63.6324 20.016C63.6324 19.1947 63.787 18.4747 64.0964 17.856C64.4164 17.2373 64.8644 16.7573 65.4404 16.416C66.0164 16.064 66.699 15.888 67.4884 15.888C68.203 15.888 68.8324 16.0267 69.3764 16.304C69.931 16.5707 70.3577 16.96 70.6564 17.472C70.9657 17.984 71.1204 18.6027 71.1204 19.328C71.1204 19.5413 71.1097 19.7493 71.0884 19.952C71.0777 20.144 71.0617 20.304 71.0404 20.432H64.4484V19.28H69.6324L69.4564 19.44C69.499 18.9493 69.4457 18.5493 69.2964 18.24C69.1577 17.9307 68.9284 17.7013 68.6084 17.552C68.299 17.4027 67.9097 17.328 67.4404 17.328C66.5977 17.328 66.0217 17.5413 65.7124 17.968C65.403 18.384 65.2484 18.96 65.2484 19.696V20.176C65.2484 20.7093 65.3124 21.1627 65.4404 21.536C65.579 21.8987 65.8137 22.1707 66.1444 22.352C66.475 22.5333 66.9284 22.624 67.5044 22.624C68.1764 22.624 68.651 22.5173 68.9284 22.304C69.2057 22.0907 69.3444 21.808 69.3444 21.456V21.328H71.0564V21.472C71.0564 22.016 70.907 22.4907 70.6084 22.896C70.3097 23.2907 69.8937 23.6 69.3604 23.824C68.8377 24.048 68.2137 24.16 67.4884 24.16ZM73.7472 24H72.0192V16H73.6032V18.224L73.7472 18.304V24ZM73.7472 18.816H73.3472V17.264H73.6832C73.8432 16.8907 74.1046 16.5707 74.4672 16.304C74.8406 16.0267 75.3206 15.888 75.9072 15.888C76.4726 15.888 76.9206 16.0107 77.2512 16.256C77.5926 16.5013 77.8379 16.8267 77.9872 17.232C78.1366 17.6373 78.2112 18.0907 78.2112 18.592V19.12H76.4832V18.8C76.4832 18.2667 76.3926 17.8933 76.2112 17.68C76.0299 17.4667 75.6886 17.36 75.1872 17.36C74.6646 17.36 74.2912 17.472 74.0672 17.696C73.8539 17.9093 73.7472 18.2827 73.7472 18.816Z" fill="black"/>
<g clip-path="url(#clip0_6_12)">
<circle cx="102" cy="19" r="11" fill="url(#paint0_linear_6_12)"/>
<path d="M87.3684 33.0286C87.1081 33.2889 87.1081 33.7111 87.3684 33.9714C87.6288 34.2318 88.0509 34.2318 88.3113 33.9714L87.8398 33.5L87.3684 33.0286ZM94.5065 27.5C94.5065 27.1318 94.2081 26.8333 93.8398 26.8333L87.8395 26.8333C87.4713 26.8333 87.1728 27.1318 87.1728 27.5C87.1728 27.8682 87.4713 28.1667 87.8395 28.1667H93.1731V33.5003C93.1731 33.8685 93.4716 34.167 93.8398 34.167C94.2081 34.167 94.5065 33.8685 94.5065 33.5003L94.5065 27.5ZM87.8398 33.5L88.3113 33.9714L94.3113 27.9714L93.8398 27.5L93.3684 27.0286L87.3684 33.0286L87.8398 33.5Z" fill="#FFFCE5"/>
<path d="M98.3684 22.0286C98.1081 22.2889 98.1081 22.7111 98.3684 22.9714C98.6288 23.2318 99.0509 23.2318 99.3113 22.9714L98.8398 22.5L98.3684 22.0286ZM105.507 16.5C105.507 16.1318 105.208 15.8333 104.84 15.8333L98.8395 15.8333C98.4713 15.8333 98.1728 16.1318 98.1728 16.5C98.1728 16.8682 98.4713 17.1667 98.8395 17.1667H104.173V22.5003C104.173 22.8685 104.472 23.167 104.84 23.167C105.208 23.167 105.507 22.8685 105.507 22.5003L105.507 16.5ZM98.8398 22.5L99.3113 22.9714L105.311 16.9714L104.84 16.5L104.368 16.0286L98.3684 22.0286L98.8398 22.5Z" fill="#FFFCE5"/>
</g>
<defs>
<linearGradient id="paint0_linear_6_12" x1="102" y1="8" x2="102" y2="30" gradientUnits="userSpaceOnUse">
<stop stop-color="#8628E3"/>
<stop offset="1" stop-color="#4A167D"/>
</linearGradient>
<clipPath id="clip0_6_12">
<rect x="91" y="8" width="22" height="22" rx="11" fill="white"/>
</clipPath>
</defs>
</svg>
