<svg width="359" height="44" viewBox="0 0 359 44" fill="none" xmlns="http://www.w3.org/2000/svg">
<rect width="358.664" height="44" rx="22" fill="white" fill-opacity="0.05"/>
<path d="M27.0608 27.3211C27.2714 27.6467 27.6513 27.8664 28.1252 27.7956C28.7514 27.702 29.3622 27.5465 29.9497 27.3345C34.8874 27.5487 38.664 28.7275 38.664 30.1498C38.664 31.7239 34.0382 33 28.332 33C22.6258 33 18 31.7239 18 30.1498C18 28.6944 21.9543 27.4939 27.0608 27.3211Z" fill="#FFFCE5"/>
<path d="M27.2997 25.8901C26.4257 26.5438 27.0191 27.9608 28.1252 27.7956C29.6347 27.5701 31.0551 26.9847 32.274 26.1146C35.4692 26.5254 37.6842 27.4199 37.6842 28.4575C37.6842 29.884 33.4971 31.0405 28.332 31.0405C23.1669 31.0405 18.9797 29.884 18.9797 28.4575C18.9798 27.1273 22.6203 26.032 27.2997 25.8901Z" fill="#FFFCE5"/>
<path fill-rule="evenodd" clip-rule="evenodd" d="M28.332 11C33.6938 11 38.0405 15.3466 38.0405 20.7085C38.0405 26.0704 33.6938 30.417 28.332 30.417C22.9701 30.417 18.6235 26.0704 18.6235 20.7085C18.6235 15.3466 22.9701 11 28.332 11ZM34.929 23.173C35.5051 22.1918 34.361 21.0958 33.4177 21.7321C33.4177 21.7321 31.2619 22.8554 30.0901 23.6434C28.8759 24.46 27.3178 25.8456 27.3134 25.8494C26.3695 26.4861 26.9641 27.9577 28.0903 27.7895C30.9389 27.364 33.4706 25.6567 34.929 23.173ZM24.2621 16.6088C24.1843 15.5421 22.7062 15.2447 22.2283 16.2445C20.9844 18.8474 20.984 21.8843 22.2313 24.4855C22.7101 25.484 24.1846 25.1812 24.2621 24.1149C24.2664 24.0563 24.27 23.9984 24.2793 23.9404C24.3467 23.5173 24.6363 21.6264 24.6356 20.3522C24.635 19.0853 24.3466 17.2056 24.2793 16.7836C24.27 16.7255 24.2664 16.6674 24.2621 16.6088ZM28.0903 17.1979C26.9655 16.4505 25.4613 17.257 25.4613 18.6075V22.43C25.4613 23.7805 26.9655 24.587 28.0903 23.8396L30.9666 21.9282C31.9742 21.2587 31.9742 19.7788 30.9666 19.1093L28.0903 17.1979ZM28.3152 13.0616C27.2284 12.9007 26.6431 14.267 27.4531 14.9341C27.512 14.9826 27.5712 15.0298 27.6245 15.0844C27.9583 15.4263 29.2816 16.7577 30.322 17.4601C31.3658 18.1647 33.1015 18.8955 33.5442 19.0773C33.6148 19.1062 33.6807 19.1433 33.7477 19.1797C34.6701 19.681 35.7152 18.6204 35.1573 17.6731C33.6957 15.1913 31.1644 13.4834 28.3152 13.0616Z" fill="#FFFCE5"/>
<path d="M49.5447 16.3438V14.4545H60.8018V16.3438H56.2635V29H54.076V16.3438H49.5447ZM64.6425 22.5227V29H62.519V14.4545H64.6141V19.8665H64.7491C65.0048 19.2794 65.3954 18.813 65.921 18.4673C66.4465 18.1217 67.1331 17.9489 67.9806 17.9489C68.7287 17.9489 69.3821 18.1027 69.9408 18.4105C70.5043 18.7183 70.9399 19.1776 71.2477 19.7884C71.5602 20.3944 71.7164 21.152 71.7164 22.0611V29H69.5928V22.3168C69.5928 21.5166 69.3869 20.8963 68.9749 20.456C68.563 20.0109 67.9901 19.7884 67.2562 19.7884C66.7543 19.7884 66.3045 19.8949 65.9067 20.108C65.5138 20.321 65.2036 20.6335 64.9763 21.0455C64.7538 21.4527 64.6425 21.9451 64.6425 22.5227ZM78.6519 29.2202C77.5771 29.2202 76.6514 28.9905 75.8749 28.5312C75.1031 28.0672 74.5066 27.4162 74.0852 26.5781C73.6685 25.7353 73.4602 24.7481 73.4602 23.6165C73.4602 22.4991 73.6685 21.5142 74.0852 20.6619C74.5066 19.8097 75.0937 19.1444 75.8465 18.6662C76.6041 18.188 77.4895 17.9489 78.5028 17.9489C79.1183 17.9489 79.7149 18.0507 80.2925 18.2543C80.8702 18.4579 81.3887 18.7775 81.8479 19.2131C82.3072 19.6487 82.6694 20.2145 82.9346 20.9105C83.1997 21.6018 83.3323 22.4422 83.3323 23.4318V24.1847H74.6604V22.5938H81.2513C81.2513 22.035 81.1377 21.5402 80.9104 21.1094C80.6832 20.6738 80.3636 20.3305 79.9516 20.0795C79.5444 19.8286 79.0662 19.7031 78.517 19.7031C77.9204 19.7031 77.3995 19.8499 76.9545 20.1435C76.5141 20.4323 76.1732 20.8111 75.9317 21.2798C75.695 21.7438 75.5766 22.2481 75.5766 22.7926V24.0355C75.5766 24.7647 75.7045 25.3849 75.9602 25.8963C76.2206 26.4077 76.5828 26.7983 77.0468 27.0682C77.5108 27.3333 78.053 27.4659 78.6732 27.4659C79.0757 27.4659 79.4426 27.4091 79.7741 27.2955C80.1055 27.1771 80.392 27.0019 80.6335 26.7699C80.8749 26.5379 81.0596 26.2514 81.1874 25.9105L83.1974 26.2727C83.0364 26.8646 82.7476 27.383 82.3309 27.8281C81.919 28.2685 81.4005 28.6117 80.7755 28.858C80.1552 29.0994 79.4474 29.2202 78.6519 29.2202ZM87.0913 29L83.0572 14.4545H85.3655L88.1993 25.7188H88.3342L91.2817 14.4545H93.5686L96.5161 25.7259H96.651L99.4777 14.4545H101.793L97.7518 29H95.543L92.482 18.1051H92.3683L89.3072 29H87.0913ZM106.651 29.2202C105.576 29.2202 104.651 28.9905 103.874 28.5312C103.102 28.0672 102.506 27.4162 102.084 26.5781C101.668 25.7353 101.459 24.7481 101.459 23.6165C101.459 22.4991 101.668 21.5142 102.084 20.6619C102.506 19.8097 103.093 19.1444 103.846 18.6662C104.603 18.188 105.489 17.9489 106.502 17.9489C107.118 17.9489 107.714 18.0507 108.292 18.2543C108.869 18.4579 109.388 18.7775 109.847 19.2131C110.306 19.6487 110.669 20.2145 110.934 20.9105C111.199 21.6018 111.332 22.4422 111.332 23.4318V24.1847H102.66V22.5938H109.251C109.251 22.035 109.137 21.5402 108.91 21.1094C108.682 20.6738 108.363 20.3305 107.951 20.0795C107.544 19.8286 107.065 19.7031 106.516 19.7031C105.92 19.7031 105.399 19.8499 104.954 20.1435C104.513 20.4323 104.172 20.8111 103.931 21.2798C103.694 21.7438 103.576 22.2481 103.576 22.7926V24.0355C103.576 24.7647 103.704 25.3849 103.959 25.8963C104.22 26.4077 104.582 26.7983 105.046 27.0682C105.51 27.3333 106.052 27.4659 106.672 27.4659C107.075 27.4659 107.442 27.4091 107.773 27.2955C108.105 27.1771 108.391 27.0019 108.633 26.7699C108.874 26.5379 109.059 26.2514 109.187 25.9105L111.197 26.2727C111.036 26.8646 110.747 27.383 110.33 27.8281C109.918 28.2685 109.4 28.6117 108.775 28.858C108.154 29.0994 107.447 29.2202 106.651 29.2202ZM117.789 29.2202C116.715 29.2202 115.789 28.9905 115.012 28.5312C114.241 28.0672 113.644 27.4162 113.223 26.5781C112.806 25.7353 112.598 24.7481 112.598 23.6165C112.598 22.4991 112.806 21.5142 113.223 20.6619C113.644 19.8097 114.231 19.1444 114.984 18.6662C115.742 18.188 116.627 17.9489 117.64 17.9489C118.256 17.9489 118.852 18.0507 119.43 18.2543C120.008 18.4579 120.526 18.7775 120.985 19.2131C121.445 19.6487 121.807 20.2145 122.072 20.9105C122.337 21.6018 122.47 22.4422 122.47 23.4318V24.1847H113.798V22.5938H120.389C120.389 22.035 120.275 21.5402 120.048 21.1094C119.821 20.6738 119.501 20.3305 119.089 20.0795C118.682 19.8286 118.204 19.7031 117.654 19.7031C117.058 19.7031 116.537 19.8499 116.092 20.1435C115.652 20.4323 115.311 20.8111 115.069 21.2798C114.833 21.7438 114.714 22.2481 114.714 22.7926V24.0355C114.714 24.7647 114.842 25.3849 115.098 25.8963C115.358 26.4077 115.72 26.7983 116.184 27.0682C116.648 27.3333 117.19 27.4659 117.811 27.4659C118.213 27.4659 118.58 27.4091 118.912 27.2955C119.243 27.1771 119.529 27.0019 119.771 26.7699C120.012 26.5379 120.197 26.2514 120.325 25.9105L122.335 26.2727C122.174 26.8646 121.885 27.383 121.468 27.8281C121.056 28.2685 120.538 28.6117 119.913 28.858C119.293 29.0994 118.585 29.2202 117.789 29.2202ZM128.821 29.2202C127.765 29.2202 126.856 28.9811 126.094 28.5028C125.336 28.0199 124.754 27.3546 124.347 26.5071C123.94 25.6596 123.736 24.6889 123.736 23.5952C123.736 22.4872 123.944 21.5095 124.361 20.6619C124.778 19.8097 125.365 19.1444 126.122 18.6662C126.88 18.188 127.772 17.9489 128.8 17.9489C129.628 17.9489 130.367 18.1027 131.016 18.4105C131.664 18.7135 132.188 19.1397 132.585 19.6889C132.988 20.2382 133.227 20.8797 133.303 21.6136H131.236C131.122 21.1023 130.862 20.6619 130.455 20.2926C130.052 19.9233 129.512 19.7386 128.835 19.7386C128.244 19.7386 127.725 19.8949 127.28 20.2074C126.84 20.5152 126.496 20.9555 126.25 21.5284C126.004 22.0966 125.881 22.7689 125.881 23.5455C125.881 24.3409 126.002 25.0275 126.243 25.6051C126.485 26.1828 126.825 26.6302 127.266 26.9474C127.711 27.2647 128.234 27.4233 128.835 27.4233C129.238 27.4233 129.602 27.3499 129.929 27.2031C130.261 27.0516 130.538 26.8362 130.76 26.5568C130.987 26.2775 131.146 25.9413 131.236 25.5483H133.303C133.227 26.2538 132.997 26.8835 132.614 27.4375C132.23 27.9915 131.717 28.4271 131.073 28.7443C130.433 29.0616 129.683 29.2202 128.821 29.2202ZM137.097 22.5227V29H134.974V14.4545H137.069V19.8665H137.204C137.459 19.2794 137.85 18.813 138.376 18.4673C138.901 18.1217 139.588 17.9489 140.435 17.9489C141.183 17.9489 141.837 18.1027 142.396 18.4105C142.959 18.7183 143.395 19.1776 143.702 19.7884C144.015 20.3944 144.171 21.152 144.171 22.0611V29H142.048V22.3168C142.048 21.5166 141.842 20.8963 141.43 20.456C141.018 20.0109 140.445 19.7884 139.711 19.7884C139.209 19.7884 138.759 19.8949 138.361 20.108C137.968 20.321 137.658 20.6335 137.431 21.0455C137.209 21.4527 137.097 21.9451 137.097 22.5227ZM151.268 29V14.4545H156.595C157.627 14.4545 158.482 14.625 159.159 14.9659C159.836 15.3021 160.343 15.759 160.679 16.3366C161.015 16.9096 161.183 17.5559 161.183 18.2756C161.183 18.8816 161.072 19.393 160.849 19.8097C160.627 20.2216 160.328 20.553 159.954 20.804C159.585 21.0502 159.178 21.2301 158.733 21.3438V21.4858C159.216 21.5095 159.687 21.6657 160.146 21.9545C160.61 22.2386 160.994 22.6435 161.297 23.169C161.6 23.6946 161.751 24.3338 161.751 25.0866C161.751 25.83 161.576 26.4976 161.226 27.0895C160.88 27.6766 160.345 28.143 159.621 28.4886C158.896 28.8295 157.971 29 156.844 29H151.268ZM153.463 27.1179H156.631C157.682 27.1179 158.435 26.9143 158.889 26.5071C159.344 26.0999 159.571 25.5909 159.571 24.9801C159.571 24.5208 159.455 24.0994 159.223 23.7159C158.991 23.3324 158.659 23.027 158.229 22.7997C157.802 22.5724 157.296 22.4588 156.709 22.4588H153.463V27.1179ZM153.463 20.7472H156.403C156.896 20.7472 157.338 20.6525 157.731 20.4631C158.129 20.2737 158.444 20.0085 158.676 19.6676C158.913 19.322 159.031 18.9148 159.031 18.446C159.031 17.8447 158.82 17.3404 158.399 16.9332C157.978 16.526 157.331 16.3224 156.46 16.3224H153.463V20.7472ZM168.286 29.2202C167.211 29.2202 166.285 28.9905 165.509 28.5312C164.737 28.0672 164.14 27.4162 163.719 26.5781C163.302 25.7353 163.094 24.7481 163.094 23.6165C163.094 22.4991 163.302 21.5142 163.719 20.6619C164.14 19.8097 164.727 19.1444 165.48 18.6662C166.238 18.188 167.123 17.9489 168.136 17.9489C168.752 17.9489 169.348 18.0507 169.926 18.2543C170.504 18.4579 171.022 18.7775 171.482 19.2131C171.941 19.6487 172.303 20.2145 172.568 20.9105C172.833 21.6018 172.966 22.4422 172.966 23.4318V24.1847H164.294V22.5938H170.885C170.885 22.035 170.771 21.5402 170.544 21.1094C170.317 20.6738 169.997 20.3305 169.585 20.0795C169.178 19.8286 168.7 19.7031 168.151 19.7031C167.554 19.7031 167.033 19.8499 166.588 20.1435C166.148 20.4323 165.807 20.8111 165.565 21.2798C165.329 21.7438 165.21 22.2481 165.21 22.7926V24.0355C165.21 24.7647 165.338 25.3849 165.594 25.8963C165.854 26.4077 166.216 26.7983 166.68 27.0682C167.144 27.3333 167.687 27.4659 168.307 27.4659C168.709 27.4659 169.076 27.4091 169.408 27.2955C169.739 27.1771 170.026 27.0019 170.267 26.7699C170.509 26.5379 170.693 26.2514 170.821 25.9105L172.831 26.2727C172.67 26.8646 172.381 27.383 171.964 27.8281C171.553 28.2685 171.034 28.6117 170.409 28.858C169.789 29.0994 169.081 29.2202 168.286 29.2202ZM176.846 22.5227V29H174.722V14.4545H176.817V19.8665H176.952C177.208 19.2794 177.599 18.813 178.124 18.4673C178.65 18.1217 179.336 17.9489 180.184 17.9489C180.932 17.9489 181.585 18.1027 182.144 18.4105C182.707 18.7183 183.143 19.1776 183.451 19.7884C183.763 20.3944 183.92 21.152 183.92 22.0611V29H181.796V22.3168C181.796 21.5166 181.59 20.8963 181.178 20.456C180.766 20.0109 180.193 19.7884 179.459 19.7884C178.957 19.7884 178.508 19.8949 178.11 20.108C177.717 20.321 177.407 20.6335 177.179 21.0455C176.957 21.4527 176.846 21.9451 176.846 22.5227ZM189.328 29.2415C188.637 29.2415 188.012 29.1136 187.453 28.858C186.894 28.5975 186.452 28.2211 186.125 27.7287C185.803 27.2363 185.642 26.6326 185.642 25.9176C185.642 25.3021 185.76 24.7955 185.997 24.3977C186.234 24 186.553 23.6851 186.956 23.4531C187.358 23.2211 187.808 23.0459 188.305 22.9276C188.802 22.8092 189.309 22.7192 189.825 22.6577C190.479 22.5819 191.009 22.5204 191.416 22.473C191.823 22.4209 192.119 22.3381 192.304 22.2244C192.489 22.1108 192.581 21.9261 192.581 21.6705V21.6207C192.581 21.0005 192.406 20.5199 192.055 20.179C191.71 19.8381 191.194 19.6676 190.507 19.6676C189.792 19.6676 189.229 19.8262 188.817 20.1435C188.409 20.456 188.128 20.804 187.972 21.1875L185.976 20.733C186.213 20.0701 186.558 19.535 187.013 19.1278C187.472 18.7159 188 18.4176 188.597 18.233C189.193 18.0436 189.82 17.9489 190.479 17.9489C190.914 17.9489 191.376 18.0009 191.864 18.1051C192.356 18.2045 192.815 18.3892 193.241 18.6591C193.672 18.929 194.025 19.3149 194.3 19.8168C194.574 20.3139 194.712 20.9602 194.712 21.7557V29H192.638V27.5085H192.552C192.415 27.7831 192.209 28.053 191.935 28.3182C191.66 28.5833 191.307 28.8035 190.876 28.9787C190.445 29.1539 189.929 29.2415 189.328 29.2415ZM189.79 27.5369C190.377 27.5369 190.879 27.4209 191.295 27.1889C191.717 26.9569 192.036 26.6539 192.254 26.2798C192.477 25.901 192.588 25.4962 192.588 25.0653V23.6591C192.512 23.7348 192.365 23.8059 192.148 23.8722C191.935 23.9337 191.691 23.9882 191.416 24.0355C191.142 24.0781 190.874 24.1184 190.614 24.1562C190.353 24.1894 190.135 24.2178 189.96 24.2415C189.548 24.2936 189.172 24.3812 188.831 24.5043C188.495 24.6274 188.225 24.8049 188.021 25.0369C187.822 25.2642 187.723 25.5672 187.723 25.946C187.723 26.4716 187.917 26.8693 188.305 27.1392C188.694 27.4044 189.188 27.5369 189.79 27.5369ZM205.882 18.0909L201.926 29H199.653L195.69 18.0909H197.97L200.733 26.4858H200.846L203.602 18.0909H205.882ZM207.278 29V18.0909H209.401V29H207.278ZM208.35 16.4077C207.981 16.4077 207.663 16.2846 207.398 16.0384C207.138 15.7874 207.008 15.4891 207.008 15.1435C207.008 14.7931 207.138 14.4948 207.398 14.2486C207.663 13.9976 207.981 13.8722 208.35 13.8722C208.719 13.8722 209.034 13.9976 209.295 14.2486C209.56 14.4948 209.692 14.7931 209.692 15.1435C209.692 15.4891 209.56 15.7874 209.295 16.0384C209.034 16.2846 208.719 16.4077 208.35 16.4077ZM216.253 29.2202C215.23 29.2202 214.338 28.9858 213.576 28.517C212.813 28.0483 212.221 27.3925 211.8 26.5497C211.379 25.7069 211.168 24.7221 211.168 23.5952C211.168 22.4635 211.379 21.474 211.8 20.6264C212.221 19.7789 212.813 19.1207 213.576 18.652C214.338 18.1832 215.23 17.9489 216.253 17.9489C217.276 17.9489 218.168 18.1832 218.931 18.652C219.693 19.1207 220.285 19.7789 220.706 20.6264C221.128 21.474 221.338 22.4635 221.338 23.5952C221.338 24.7221 221.128 25.7069 220.706 26.5497C220.285 27.3925 219.693 28.0483 218.931 28.517C218.168 28.9858 217.276 29.2202 216.253 29.2202ZM216.26 27.4375C216.923 27.4375 217.472 27.2623 217.908 26.9119C218.344 26.5616 218.666 26.0952 218.874 25.5128C219.087 24.9304 219.194 24.2888 219.194 23.5881C219.194 22.892 219.087 22.2528 218.874 21.6705C218.666 21.0833 218.344 20.6122 217.908 20.2571C217.472 19.902 216.923 19.7244 216.26 19.7244C215.593 19.7244 215.039 19.902 214.598 20.2571C214.163 20.6122 213.838 21.0833 213.625 21.6705C213.417 22.2528 213.313 22.892 213.313 23.5881C213.313 24.2888 213.417 24.9304 213.625 25.5128C213.838 26.0952 214.163 26.5616 214.598 26.9119C215.039 27.2623 215.593 27.4375 216.26 27.4375ZM223.109 29V18.0909H225.161V19.8239H225.275C225.474 19.2367 225.824 18.7751 226.326 18.4389C226.833 18.098 227.406 17.9276 228.045 17.9276C228.177 17.9276 228.334 17.9323 228.514 17.9418C228.698 17.9512 228.843 17.9631 228.947 17.9773V20.0085C228.862 19.9848 228.71 19.9588 228.492 19.9304C228.275 19.8973 228.057 19.8807 227.839 19.8807C227.337 19.8807 226.89 19.9872 226.497 20.2003C226.108 20.4086 225.801 20.6998 225.573 21.0739C225.346 21.4432 225.232 21.8646 225.232 22.3381V29H223.109ZM233.262 29.2415C232.57 29.2415 231.945 29.1136 231.387 28.858C230.828 28.5975 230.385 28.2211 230.059 27.7287C229.737 27.2363 229.576 26.6326 229.576 25.9176C229.576 25.3021 229.694 24.7955 229.931 24.3977C230.167 24 230.487 23.6851 230.889 23.4531C231.292 23.2211 231.742 23.0459 232.239 22.9276C232.736 22.8092 233.243 22.7192 233.759 22.6577C234.412 22.5819 234.943 22.5204 235.35 22.473C235.757 22.4209 236.053 22.3381 236.238 22.2244C236.422 22.1108 236.514 21.9261 236.514 21.6705V21.6207C236.514 21.0005 236.339 20.5199 235.989 20.179C235.643 19.8381 235.127 19.6676 234.441 19.6676C233.726 19.6676 233.162 19.8262 232.75 20.1435C232.343 20.456 232.061 20.804 231.905 21.1875L229.909 20.733C230.146 20.0701 230.492 19.535 230.946 19.1278C231.406 18.7159 231.934 18.4176 232.53 18.233C233.127 18.0436 233.754 17.9489 234.412 17.9489C234.848 17.9489 235.309 18.0009 235.797 18.1051C236.29 18.2045 236.749 18.3892 237.175 18.6591C237.606 18.929 237.959 19.3149 238.233 19.8168C238.508 20.3139 238.645 20.9602 238.645 21.7557V29H236.571V27.5085H236.486C236.349 27.7831 236.143 28.053 235.868 28.3182C235.594 28.5833 235.241 28.8035 234.81 28.9787C234.379 29.1539 233.863 29.2415 233.262 29.2415ZM233.723 27.5369C234.31 27.5369 234.812 27.4209 235.229 27.1889C235.65 26.9569 235.97 26.6539 236.188 26.2798C236.41 25.901 236.522 25.4962 236.522 25.0653V23.6591C236.446 23.7348 236.299 23.8059 236.081 23.8722C235.868 23.9337 235.624 23.9882 235.35 24.0355C235.075 24.0781 234.808 24.1184 234.547 24.1562C234.287 24.1894 234.069 24.2178 233.894 24.2415C233.482 24.2936 233.105 24.3812 232.764 24.5043C232.428 24.6274 232.158 24.8049 231.955 25.0369C231.756 25.2642 231.657 25.5672 231.657 25.946C231.657 26.4716 231.851 26.8693 232.239 27.1392C232.627 27.4044 233.122 27.5369 233.723 27.5369ZM242.997 14.4545V29H240.874V14.4545H242.997ZM250.118 29V14.4545H255.302C256.434 14.4545 257.371 14.6605 258.115 15.0724C258.858 15.4844 259.414 16.0478 259.784 16.7628C260.153 17.473 260.338 18.2732 260.338 19.1634C260.338 20.0582 260.151 20.8632 259.777 21.5781C259.407 22.2884 258.849 22.8518 258.1 23.2685C257.357 23.6804 256.422 23.8864 255.295 23.8864H251.73V22.0256H255.096C255.811 22.0256 256.391 21.9025 256.836 21.6562C257.281 21.4053 257.608 21.0644 257.816 20.6335C258.025 20.2027 258.129 19.7126 258.129 19.1634C258.129 18.6141 258.025 18.1264 257.816 17.7003C257.608 17.2741 257.279 16.9403 256.829 16.6989C256.384 16.4574 255.797 16.3366 255.068 16.3366H252.312V29H250.118ZM262.14 29V18.0909H264.193V19.8239H264.306C264.505 19.2367 264.855 18.7751 265.357 18.4389C265.864 18.098 266.437 17.9276 267.076 17.9276C267.209 17.9276 267.365 17.9323 267.545 17.9418C267.73 17.9512 267.874 17.9631 267.978 17.9773V20.0085C267.893 19.9848 267.741 19.9588 267.524 19.9304C267.306 19.8973 267.088 19.8807 266.87 19.8807C266.368 19.8807 265.921 19.9872 265.528 20.2003C265.14 20.4086 264.832 20.6998 264.605 21.0739C264.377 21.4432 264.264 21.8646 264.264 22.3381V29H262.14ZM273.42 29.2202C272.398 29.2202 271.505 28.9858 270.743 28.517C269.981 28.0483 269.389 27.3925 268.967 26.5497C268.546 25.7069 268.335 24.7221 268.335 23.5952C268.335 22.4635 268.546 21.474 268.967 20.6264C269.389 19.7789 269.981 19.1207 270.743 18.652C271.505 18.1832 272.398 17.9489 273.42 17.9489C274.443 17.9489 275.336 18.1832 276.098 18.652C276.86 19.1207 277.452 19.7789 277.874 20.6264C278.295 21.474 278.506 22.4635 278.506 23.5952C278.506 24.7221 278.295 25.7069 277.874 26.5497C277.452 27.3925 276.86 28.0483 276.098 28.517C275.336 28.9858 274.443 29.2202 273.42 29.2202ZM273.427 27.4375C274.09 27.4375 274.64 27.2623 275.075 26.9119C275.511 26.5616 275.833 26.0952 276.041 25.5128C276.254 24.9304 276.361 24.2888 276.361 23.5881C276.361 22.892 276.254 22.2528 276.041 21.6705C275.833 21.0833 275.511 20.6122 275.075 20.2571C274.64 19.902 274.09 19.7244 273.427 19.7244C272.76 19.7244 272.206 19.902 271.766 20.2571C271.33 20.6122 271.006 21.0833 270.793 21.6705C270.584 22.2528 270.48 22.892 270.48 23.5881C270.48 24.2888 270.584 24.9304 270.793 25.5128C271.006 26.0952 271.33 26.5616 271.766 26.9119C272.206 27.2623 272.76 27.4375 273.427 27.4375ZM280.276 18.0909H282.4V29.7102C282.4 30.4394 282.267 31.0549 282.002 31.5568C281.741 32.0587 281.353 32.4399 280.837 32.7003C280.326 32.9607 279.694 33.0909 278.941 33.0909C278.865 33.0909 278.794 33.0909 278.728 33.0909C278.657 33.0909 278.583 33.0885 278.508 33.0838V31.2585C278.574 31.2585 278.633 31.2585 278.685 31.2585C278.732 31.2585 278.787 31.2585 278.848 31.2585C279.35 31.2585 279.713 31.1236 279.935 30.8537C280.162 30.5885 280.276 30.2027 280.276 29.696V18.0909ZM281.327 16.4077C280.958 16.4077 280.641 16.2846 280.375 16.0384C280.115 15.7874 279.985 15.4891 279.985 15.1435C279.985 14.7931 280.115 14.4948 280.375 14.2486C280.641 13.9976 280.958 13.8722 281.327 13.8722C281.696 13.8722 282.011 13.9976 282.272 14.2486C282.537 14.4948 282.669 14.7931 282.669 15.1435C282.669 15.4891 282.537 15.7874 282.272 16.0384C282.011 16.2846 281.696 16.4077 281.327 16.4077ZM289.358 29.2202C288.283 29.2202 287.358 28.9905 286.581 28.5312C285.809 28.0672 285.213 27.4162 284.791 26.5781C284.375 25.7353 284.166 24.7481 284.166 23.6165C284.166 22.4991 284.375 21.5142 284.791 20.6619C285.213 19.8097 285.8 19.1444 286.553 18.6662C287.31 18.188 288.196 17.9489 289.209 17.9489C289.825 17.9489 290.421 18.0507 290.999 18.2543C291.576 18.4579 292.095 18.7775 292.554 19.2131C293.013 19.6487 293.376 20.2145 293.641 20.9105C293.906 21.6018 294.039 22.4422 294.039 23.4318V24.1847H285.367V22.5938H291.958C291.958 22.035 291.844 21.5402 291.617 21.1094C291.389 20.6738 291.07 20.3305 290.658 20.0795C290.251 19.8286 289.772 19.7031 289.223 19.7031C288.627 19.7031 288.106 19.8499 287.661 20.1435C287.22 20.4323 286.879 20.8111 286.638 21.2798C286.401 21.7438 286.283 22.2481 286.283 22.7926V24.0355C286.283 24.7647 286.411 25.3849 286.666 25.8963C286.927 26.4077 287.289 26.7983 287.753 27.0682C288.217 27.3333 288.759 27.4659 289.379 27.4659C289.782 27.4659 290.149 27.4091 290.48 27.2955C290.812 27.1771 291.098 27.0019 291.34 26.7699C291.581 26.5379 291.766 26.2514 291.894 25.9105L293.904 26.2727C293.743 26.8646 293.454 27.383 293.037 27.8281C292.625 28.2685 292.107 28.6117 291.482 28.858C290.861 29.0994 290.154 29.2202 289.358 29.2202ZM300.39 29.2202C299.334 29.2202 298.425 28.9811 297.663 28.5028C296.905 28.0199 296.323 27.3546 295.915 26.5071C295.508 25.6596 295.305 24.6889 295.305 23.5952C295.305 22.4872 295.513 21.5095 295.93 20.6619C296.346 19.8097 296.933 19.1444 297.691 18.6662C298.449 18.188 299.341 17.9489 300.369 17.9489C301.197 17.9489 301.936 18.1027 302.585 18.4105C303.233 18.7135 303.756 19.1397 304.154 19.6889C304.557 20.2382 304.796 20.8797 304.871 21.6136H302.805C302.691 21.1023 302.431 20.6619 302.023 20.2926C301.621 19.9233 301.081 19.7386 300.404 19.7386C299.812 19.7386 299.294 19.8949 298.849 20.2074C298.408 20.5152 298.065 20.9555 297.819 21.5284C297.573 22.0966 297.45 22.7689 297.45 23.5455C297.45 24.3409 297.57 25.0275 297.812 25.6051C298.053 26.1828 298.394 26.6302 298.835 26.9474C299.28 27.2647 299.803 27.4233 300.404 27.4233C300.807 27.4233 301.171 27.3499 301.498 27.2031C301.829 27.0516 302.106 26.8362 302.329 26.5568C302.556 26.2775 302.715 25.9413 302.805 25.5483H304.871C304.796 26.2538 304.566 26.8835 304.183 27.4375C303.799 27.9915 303.285 28.4271 302.641 28.7443C302.002 29.0616 301.252 29.2202 300.39 29.2202ZM311.635 18.0909V19.7955H305.676V18.0909H311.635ZM307.274 15.4773H309.398V25.7969C309.398 26.2088 309.459 26.5189 309.582 26.7273C309.705 26.9309 309.864 27.0705 310.058 27.1463C310.257 27.2173 310.472 27.2528 310.704 27.2528C310.875 27.2528 311.024 27.241 311.152 27.2173C311.28 27.1937 311.379 27.1747 311.45 27.1605L311.834 28.9148C311.71 28.9621 311.535 29.0095 311.308 29.0568C311.081 29.1089 310.797 29.1373 310.456 29.142C309.897 29.1515 309.376 29.0521 308.893 28.8438C308.41 28.6354 308.02 28.3134 307.721 27.8778C307.423 27.4422 307.274 26.8954 307.274 26.2372V15.4773ZM313.384 29V18.0909H315.507V29H313.384ZM314.456 16.4077C314.087 16.4077 313.77 16.2846 313.505 16.0384C313.244 15.7874 313.114 15.4891 313.114 15.1435C313.114 14.7931 313.244 14.4948 313.505 14.2486C313.77 13.9976 314.087 13.8722 314.456 13.8722C314.826 13.8722 315.14 13.9976 315.401 14.2486C315.666 14.4948 315.799 14.7931 315.799 15.1435C315.799 15.4891 315.666 15.7874 315.401 16.0384C315.14 16.2846 314.826 16.4077 314.456 16.4077ZM322.359 29.2202C321.337 29.2202 320.444 28.9858 319.682 28.517C318.92 28.0483 318.328 27.3925 317.906 26.5497C317.485 25.7069 317.274 24.7221 317.274 23.5952C317.274 22.4635 317.485 21.474 317.906 20.6264C318.328 19.7789 318.92 19.1207 319.682 18.652C320.444 18.1832 321.337 17.9489 322.359 17.9489C323.382 17.9489 324.275 18.1832 325.037 18.652C325.799 19.1207 326.391 19.7789 326.813 20.6264C327.234 21.474 327.445 22.4635 327.445 23.5952C327.445 24.7221 327.234 25.7069 326.813 26.5497C326.391 27.3925 325.799 28.0483 325.037 28.517C324.275 28.9858 323.382 29.2202 322.359 29.2202ZM322.367 27.4375C323.029 27.4375 323.579 27.2623 324.014 26.9119C324.45 26.5616 324.772 26.0952 324.98 25.5128C325.193 24.9304 325.3 24.2888 325.3 23.5881C325.3 22.892 325.193 22.2528 324.98 21.6705C324.772 21.0833 324.45 20.6122 324.014 20.2571C323.579 19.902 323.029 19.7244 322.367 19.7244C321.699 19.7244 321.145 19.902 320.705 20.2571C320.269 20.6122 319.945 21.0833 319.732 21.6705C319.523 22.2528 319.419 22.892 319.419 23.5881C319.419 24.2888 319.523 24.9304 319.732 25.5128C319.945 26.0952 320.269 26.5616 320.705 26.9119C321.145 27.2623 321.699 27.4375 322.367 27.4375ZM331.339 22.5227V29H329.215V18.0909H331.253V19.8665H331.388C331.639 19.2888 332.032 18.8248 332.567 18.4744C333.107 18.1241 333.787 17.9489 334.606 17.9489C335.349 17.9489 336 18.1051 336.559 18.4176C337.118 18.7254 337.551 19.1847 337.859 19.7955C338.166 20.4062 338.32 21.1615 338.32 22.0611V29H336.197V22.3168C336.197 21.526 335.991 20.9081 335.579 20.4631C335.167 20.0133 334.601 19.7884 333.881 19.7884C333.389 19.7884 332.951 19.8949 332.567 20.108C332.189 20.321 331.888 20.6335 331.665 21.0455C331.448 21.4527 331.339 21.9451 331.339 22.5227Z" fill="#FFFCE5"/>
</svg>
